<?xml version="1.0" standalone="no"?>
<!DOCTYPE svg PUBLIC "-//W3C//DTD SVG 1.1//EN" "http://www.w3.org/Graphics/SVG/1.1/DTD/svg11.dtd" >
<svg xmlns="http://www.w3.org/2000/svg">
<metadata></metadata>
<defs>
<font id="streetwearregular" horiz-adv-x="1355" >
<font-face units-per-em="2048" ascent="1536" descent="-512" />
<missing-glyph horiz-adv-x="716" />
<glyph unicode="&#xfb01;" horiz-adv-x="1429" d="M-883 -545q0 56 28.5 107t73 89.5t121.5 85.5t149 84t183 96.5t199 111.5q102 201 235 456h-221l80 150l219 2q481 930 607 1163q54 97 102 168.5t115.5 143.5t140.5 117.5t171 73.5t212 28q93 0 167 -23t121.5 -59.5t79.5 -87t45.5 -101.5t16.5 -106v-21v-4 q0 -34 -20 -82q-41 -93 -137.5 -159t-190.5 -66t-131 65.5t4 159.5q32 70 96.5 127t138.5 84q-33 135 -190 135q-223 0 -449 -424q-444 -878 -579 -1132h317q-31 -58 -80 -152h-317q-287 -536 -455 -847q-42 -72 -69.5 -117t-64.5 -98.5t-66.5 -85t-68 -64.5t-77.5 -49.5 t-87 -27.5t-103 -11q-50 0 -103.5 17.5t-102 49.5t-79.5 85.5t-31 117.5zM-645 -590q0 -88 80 -88q18 0 34.5 8t33.5 27t31 38.5t33.5 54.5t34 63t39 76t42.5 81l69 135q-203 -146 -300 -237.5t-97 -157.5zM722 173q13 61 56 138l561 1047l326 2q-293 -545 -381 -711 q-31 -54 -56 -113.5t-14 -70.5q15 -17 108 63q2 2 3.5 3t3.5 3t4 3q58 49 387.5 362t386.5 373q21 22 30 -29q11 -60 0 -112q-3 -14 -7 -19q-66 -68 -428 -430.5t-469 -464.5q-230 -217 -375 -217q-52 0 -86 19t-48.5 56t-1.5 98z" />
<glyph unicode="&#xfb02;" horiz-adv-x="1445" d="M-883 -545q0 56 28.5 107t73 89.5t121.5 85.5t149 84t183 96.5t199 111.5q102 201 235 456h-221l80 150l219 2q481 930 607 1163q54 97 102 168.5t115.5 143.5t140.5 117.5t171 73.5t212 28q124 0 220.5 -41.5t146 -113.5t53 -170t-57.5 -212q-66 -127 -196.5 -371.5 t-258.5 -484t-155 -289.5q-31 -54 -56 -113.5t-14 -70.5q15 -17 108 63q2 2 3.5 3t3.5 3t4 3q58 49 387.5 362t386.5 373q21 22 30 -29q11 -60 0 -112q-3 -14 -7 -19q-66 -68 -428 -430.5t-469 -464.5q-230 -217 -375 -217q-52 0 -86 19t-48.5 56t-1.5 98t56 138 q148 271 858 1608q32 60 44.5 108t4.5 86t-46.5 59t-106.5 21q-223 0 -449 -424q-444 -878 -579 -1132h317q-31 -58 -80 -152h-317q-287 -536 -455 -847q-42 -72 -69.5 -117t-64.5 -98.5t-66.5 -85t-68 -64.5t-77.5 -49.5t-87 -27.5t-103 -11q-50 0 -103.5 17.5t-102 49.5 t-79.5 85.5t-31 117.5zM-645 -590q0 -88 80 -88q18 0 34.5 8t33.5 27t31 38.5t33.5 54.5t34 63t39 76t42.5 81l69 135q-203 -146 -300 -237.5t-97 -157.5z" />
<glyph horiz-adv-x="0" />
<glyph horiz-adv-x="682" />
<glyph unicode=" "  horiz-adv-x="716" />
<glyph unicode="&#x09;" horiz-adv-x="716" />
<glyph unicode="&#xa0;" horiz-adv-x="716" />
<glyph unicode="!" horiz-adv-x="1030" d="M205 60.5q38 -74.5 129 -74.5t181.5 74.5t127.5 179.5q37 104 -1.5 179t-129.5 75q-90 0 -180 -74.5t-127 -179.5q-38 -105 0 -179.5zM514 719l678 1300h324l-711 -1300h-291z" />
<glyph unicode="&#x22;" horiz-adv-x="1775" d="M600 1210v148q91 0 164.5 42.5t118.5 112.5q-78 11 -108.5 83t3.5 169q37 106 127 180t182 74q65 0 104.5 -41t41.5 -108h2v-4q0 -4 -1 -13t-1 -14q-6 -99 -50 -196.5t-112 -174t-149 -135.5t-165.5 -91t-156.5 -32zM1133 1210v148q91 0 164 42.5t118 112.5 q-78 11 -108 83t4 169q37 106 127 180t182 74q65 0 104 -41t41 -108h2v-4q0 -4 -1 -13t-1 -14q-6 -99 -50 -196.5t-112 -174t-148.5 -135.5t-165 -91t-156.5 -32z" />
<glyph unicode="#" horiz-adv-x="1566" d="M0 487l115 211h268l88 166h-278l114 211h279l143 268h244l-144 -268h240l143 268h244l-143 -268h268l-113 -211h-268l-90 -166h279l-113 -211h-279l-143 -268h-246l146 268h-240l-143 -268h-246l145 268h-270zM627 698h239l88 166h-239z" />
<glyph unicode="$" horiz-adv-x="1114" d="M20.5 230q-45.5 129 10.5 264l128 17q144 13 128 -17q-36 -84 -40.5 -148t17 -98.5t53 -51t68.5 -16.5q66 0 117.5 51t44.5 142q-2 33 -9 67t-13 58.5t-24 72t-27.5 71.5t-39.5 96l-45 108q-28 68 -30.5 131t18 115t57 96.5t89.5 80t113.5 62.5t129.5 47q11 4 41 8 l147 277h211l-155 -291q86 -30 138.5 -92.5t56 -148t-63.5 -183.5q-12 -16 -73 -33t-118 -20t-82 18q39 70 54 126t9.5 90t-25 56.5t-44 31t-53.5 8.5q-41 0 -76.5 -31t-51 -96t23.5 -164q11 -28 44.5 -110t48.5 -122t34 -109t28 -132q19 -153 -68.5 -271.5t-269.5 -169.5 q-70 -20 -141 -20l-121 -227h-213l143 266q-124 62 -169.5 191z" />
<glyph unicode="%" horiz-adv-x="1671" d="M80 -84l1237 1083h235l-1237 -1083h-235zM145 507.5q-3 72.5 35 164.5q60 137 183.5 232t240.5 95t156.5 -95.5t-19.5 -231.5q-60 -135 -184.5 -230.5t-241.5 -95.5q-76 0 -121.5 44.5t-48.5 117zM295.5 506.5q6.5 -68.5 60.5 -68.5t122.5 68.5t111.5 165.5 q42 98 34.5 166.5t-61.5 68.5q-53 0 -120.5 -68.5t-110.5 -166.5q-43 -97 -36.5 -165.5zM873 12q-40 96 20 232q60 135 184 230t240 95q117 0 157 -95t-20 -230q-60 -137 -183.5 -232.5t-240.5 -95.5t-157 96zM1009 77q8 -69 62 -69q53 0 121 69t111 167q43 97 35.5 165 t-60.5 68q-54 0 -122.5 -68t-111.5 -165q-43 -98 -35 -167z" />
<glyph unicode="&#x26;" horiz-adv-x="1708" d="M3.5 413.5q-7.5 84.5 20 176t89.5 176.5q239 327 649 408q-111 89 -118 237.5t106 312.5q64 88 148 151t165 92t140.5 40.5t105.5 11.5q112 0 195 -34.5t125.5 -90.5t50 -131.5t-21.5 -155t-99 -163t-173 -152.5q-19 -12 -50 -14.5t-63.5 4t-62 26.5t-41.5 50 q144 97 243 244q85 127 77 200q-5 49 -57 49q-103 0 -230.5 -72.5t-208.5 -197.5q-72 -112 -66 -227.5t87 -155.5q18 2 49 2q24 0 41.5 -40t11.5 -80t-39 -40q-74 0 -158 -23.5t-169 -69.5t-160 -124.5t-119 -177.5q-63 -145 2 -242.5t211 -97.5q143 0 279 58.5t234 156 t142 213.5q-58 14 -86 20.5t-75.5 13.5t-75.5 5.5t-59 -11.5t-52 -30q-16 -15 -15 11q3 51 46 137q29 58 61 90q48 48 135.5 60t179.5 -2.5t195.5 -28.5t183 -18t142.5 30q16 9 17 -17q3 -49 -43 -120q-65 -97 -181 -150q-84 -40 -231 -18q-7 -83 -48.5 -169.5 t-107.5 -163.5t-155.5 -146t-187.5 -118.5t-207.5 -78.5t-213.5 -29q-123 0 -226 33t-172 88.5t-110.5 131.5t-49 160.5z" />
<glyph unicode="'" horiz-adv-x="1243" d="M600 1210v148q91 0 164.5 42.5t118.5 112.5q-78 11 -108.5 83t3.5 169q37 106 127 180t182 74q65 0 104.5 -41t41.5 -108h2v-4q0 -4 -1 -13t-1 -14q-6 -99 -50 -196.5t-112 -174t-149 -135.5t-165.5 -91t-156.5 -32z" />
<glyph unicode="(" horiz-adv-x="1024" d="M4 258.5q-11 79.5 4 182t65.5 248.5t135.5 321q86 175 179 320.5t178 248t174 182t165.5 127t153 78t135.5 42t115 11.5l-84 -174q-63 0 -122.5 -19t-135.5 -74.5t-153 -145.5t-171.5 -241.5t-193.5 -354.5q-72 -146 -120 -265.5t-72 -205.5t-29 -151t6 -105t37 -65 t58.5 -34.5t76.5 -9.5l-87 -174q-56 0 -104 11t-94.5 42t-76 78.5t-40.5 127z" />
<glyph unicode=")" horiz-adv-x="1927" d="M391 0l86 174q63 0 122.5 19.5t135.5 74.5t153 145.5t171.5 242t193.5 354.5q72 146 120 265.5t72 205.5t28.5 150.5t-6.5 104.5t-37 65t-59 34.5t-77 9.5l86 174q42 0 80.5 -6.5t77.5 -24t69.5 -44t53.5 -69.5t33.5 -97.5t5 -131.5t-27.5 -169t-68 -211t-113 -256 q-86 -175 -179 -321t-178 -248.5t-174 -182t-165.5 -127t-153 -78.5t-135.5 -42t-115 -11z" />
<glyph unicode="*" horiz-adv-x="1009" d="M811 1801q-3 27 20 42q22 15 49 16.5t42 -10.5q10 -7 21 -1.5t22 25t18 46.5q11 41 35 61t47 7t36.5 -36t8.5 -42t22 -26.5t68 1.5q42 8 70.5 -5t25.5 -40q-1 -28 -15.5 -49.5t-33.5 -26.5q-12 -2 -14 -15t7 -33t26 -42q26 -34 26.5 -66t-24.5 -42q-25 -9 -51.5 -6 t-38.5 18t-33.5 -1t-40.5 -54q-19 -39 -46.5 -53t-47.5 4q-21 17 -31 39t-4 36q9 16 -18 19q-20 2 -48 -4q-36 -6 -58.5 7.5t-21.5 41.5q2 26 14 48.5t27 25.5q22 4 -1 35q-11 14 -27 28q-28 25 -31 52z" />
<glyph unicode="+" horiz-adv-x="1695" d="M201 659l131 244h481l238 440h276l-237 -440h516l-129 -244h-519l-235 -440h-277l236 440h-481z" />
<glyph unicode="," horiz-adv-x="647" d="M0 -168q92 0 165 42.5t118 113.5q-78 11 -108 82.5t3 169.5q37 105 127 179.5t182 74.5q65 0 104.5 -42t41.5 -110l2 2v-4q0 -4 -1 -13.5t-1 -13.5q-6 -100 -50 -197.5t-112 -173.5t-149 -135t-165.5 -90.5t-156.5 -31.5v147z" />
<glyph unicode="-" horiz-adv-x="1695" d="M201 659l131 244h1274l-129 -244h-1276z" />
<glyph unicode="." horiz-adv-x="647" d="M178 240q37 105 127 179.5t182 74.5q91 0 128.5 -74.5t0.5 -179.5t-127.5 -179.5t-181.5 -74.5t-128.5 74t-0.5 180z" />
<glyph unicode="/" horiz-adv-x="1441" d="M0 -315l1812 2334h244l-1812 -2334h-244z" />
<glyph unicode="0" horiz-adv-x="1306" d="M21.5 426q9.5 129 72.5 270q84 189 234.5 350t329.5 255t341 94q122 0 208.5 -55.5t125.5 -149t29.5 -223t-72.5 -271.5q-84 -189 -234 -349t-329 -253.5t-342 -93.5q-122 0 -208.5 55.5t-125.5 148.5t-29.5 222zM344 445.5q-14 -114.5 19 -181.5t108 -67 q114 0 259.5 146t236.5 353q60 137 74.5 252.5t-19.5 182.5t-109 67q-114 0 -258.5 -146.5t-236.5 -355.5q-60 -136 -74 -250.5z" />
<glyph unicode="1" horiz-adv-x="929" d="M-162 0l82 152l256 2l438 817q-65 -43 -130 -75t-98 -43l-32 -11l-114 151q16 5 43 15.5t104 45.5t146.5 74.5t152 102.5t137.5 129h324l-647 -1206h233l-82 -152l-233 -2h-324h-256z" />
<glyph unicode="2" horiz-adv-x="1400" d="M-66 0l82 152q23 13 62 36.5t152.5 95.5t216.5 142.5t228.5 167.5t216 181t152.5 172.5t62 152.5q0 131 -148 131q-72 0 -138.5 -44.5t-109.5 -107.5t-68.5 -127.5t-25.5 -109.5h-280h-17q0 26 16 71t48 104.5t87.5 119t125 110t171 82t216.5 31.5q57 0 113 -9.5 t113.5 -33.5t101 -61t71 -97.5t27.5 -136.5q0 -75 -37 -154.5t-97 -149.5t-144.5 -142.5t-169 -131t-182.5 -116.5t-174 -97.5t-152 -76.5h694l-82 -152z" />
<glyph unicode="3" horiz-adv-x="1490" d="M-145 -92.5q7 60.5 28.5 119t50.5 104t58 74.5h301q-26 -26 -53.5 -72t-50.5 -102.5t-28 -114t9 -105.5t65 -78t136 -30q84 0 168.5 55.5t145.5 138.5t99.5 183t38.5 188q0 40 -10 71.5t-25 51t-36.5 33t-42 19.5t-43.5 8.5t-38.5 2t-30.5 -1.5l-15 -1l102 153 q70 0 154.5 48.5t153.5 120t116 161.5t47 166q0 131 -147 131q-72 0 -138.5 -44.5t-109.5 -107.5t-68.5 -127.5t-25.5 -109.5h-281h-16q0 26 16 71t48 104.5t87 119t124.5 110t171 82t216.5 31.5q57 0 113 -9.5t113.5 -33.5t101 -61t71 -97.5t27.5 -136.5q0 -90 -31 -168.5 t-86 -138.5t-121 -105t-145 -78q92 -82 92 -260q0 -87 -32 -180.5t-99 -184t-160.5 -162.5t-228 -116.5t-289.5 -44.5q-148 0 -253.5 28t-157.5 73t-75.5 103.5t-16.5 119z" />
<glyph unicode="4" horiz-adv-x="1421" d="M-135 152q47 40 125 106.5t286.5 247t377.5 331t333 304t219 219.5h324l-647 -1206h204l-81 -152l-205 -2l-223 -416h-326l225 416h-538zM152 154h407l389 725q-340 -322 -796 -725z" />
<glyph unicode="5" horiz-adv-x="1310" d="M-161.5 -95.5q6.5 60.5 28 119.5t50.5 104t58 75h301q-26 -26 -53.5 -72t-50.5 -102.5t-28 -114t9 -105.5t65 -78t136 -30q84 0 168.5 55.5t146 138.5t100 183t38.5 188q0 52 -28.5 90t-77.5 58t-96 30t-101 13h-318l490 903h323v-2l480 2l-129 -240l-480 -2l-276 -508 q56 0 102 -3t105.5 -11.5t106 -22.5t94 -40t78.5 -60.5t51 -86.5t20 -116q0 -87 -32 -180.5t-99 -184t-160.5 -162.5t-228 -116.5t-289.5 -44.5q-148 0 -253.5 27.5t-157.5 73t-75.5 103.5t-17 118.5z" />
<glyph unicode="6" horiz-adv-x="1421" d="M70 485q19 134 74 276.5t136.5 276t190 253t229 208.5t259.5 141t276 52q90 0 158.5 -15.5t107.5 -41.5t64 -60t30.5 -72t4.5 -75.5t-11 -71.5t-19.5 -60t-17.5 -42l-8 -15h-309l37 66q92 182 25 238q-27 22 -78 22q-140 0 -317.5 -173.5t-340.5 -443.5q7 7 19 19.5 t52 44t81.5 55.5t102.5 43.5t120 19.5q186 0 297 -106t86 -289q-19 -134 -91.5 -266t-179.5 -236t-252.5 -168.5t-299.5 -64.5q-74 0 -138.5 13t-126.5 47t-102 87.5t-57.5 140t-1.5 197.5zM351 385q-4 -86 33.5 -136t107.5 -50q106 0 229 109.5t192 264.5q44 101 48 187 t-33 136t-107 50q-106 0 -229.5 -109.5t-192.5 -263.5q-44 -102 -48 -188z" />
<glyph unicode="7" horiz-adv-x="1161" d="M-111 -416q23 38 63 105t162 261.5t241 374.5t280 404.5t299 390.5l-631 -2l123 240l723 2h389q-175 -176 -376 -423.5t-362.5 -475t-298 -430.5t-212.5 -325l-76 -122h-324z" />
<glyph unicode="8" horiz-adv-x="1433" d="M61.5 341q-7.5 102 42.5 218q72 179 240 321.5t367 202.5q-60 55 -74.5 134t22.5 174q66 161 248.5 275t374.5 114t280.5 -114t22.5 -275q-45 -110 -150 -201.5t-237 -142.5q108 -73 136.5 -201.5t-34.5 -286.5q-62 -152 -195 -280.5t-302 -203.5t-332 -75 q-122 0 -214.5 44t-140 119.5t-55 177.5zM426.5 386q-1.5 -80 34 -126.5t98.5 -46.5q98 0 209 101.5t170 244.5q39 95 40.5 174.5t-33.5 125.5t-99 46q-99 0 -210 -101t-169 -245q-39 -93 -40.5 -173zM935 1230q23 -67 93 -67q72 0 150 67t116 161t15.5 160.5t-92.5 66.5 q-72 0 -150.5 -66.5t-116.5 -160.5t-15 -161z" />
<glyph unicode="9" horiz-adv-x="1517" d="M-29 -67.5q1 37.5 11 71.5t19.5 60t17.5 42l8 15h309l-37 -65q-93 -183 -27 -240q26 -23 78 -23q139 0 316.5 173.5t341.5 443.5q-7 -7 -19 -19.5t-51.5 -44t-81 -55.5t-102 -44t-119.5 -20q-90 0 -165.5 27t-129 77t-78 126t-10.5 168q19 134 91 266t179 236t253 168.5 t300 64.5q74 0 139 -13t126.5 -47.5t101.5 -87.5t57.5 -140t1.5 -198q-19 -134 -74.5 -276.5t-137 -276t-190 -252.5t-229 -208t-259.5 -141t-275 -52q-90 0 -158.5 15.5t-107.5 41.5t-64 60t-30.5 72t-4.5 75.5zM608 598q-4 -86 33.5 -136t106.5 -50q106 0 230 109.5 t191 264.5q45 102 49 188.5t-33 136.5t-106 50q-106 0 -230.5 -110t-191.5 -265q-45 -102 -49 -188z" />
<glyph unicode=":" horiz-adv-x="1366" d="M406 440q37 106 127 180t182 74q91 0 128.5 -74t0.5 -180q-37 -104 -127.5 -179t-181.5 -75t-128.5 74.5t-0.5 179.5zM745 922.5q-38 74.5 0 179.5q37 105 127 179.5t181 74.5t129.5 -75t1.5 -179q-37 -105 -128 -179.5t-182 -74.5t-129 74.5z" />
<glyph unicode=";" horiz-adv-x="1525" d="M387 33q91 0 164.5 42.5t118.5 112.5q-78 11 -108.5 83t3.5 169q37 106 127 180t182 74q65 0 104.5 -41t41.5 -108h2v-4q0 -4 -1 -12.5t-1 -12.5q-6 -100 -50 -198t-112 -174.5t-149 -135.5t-165.5 -91t-156.5 -32v148zM905 922.5q-38 74.5 0 179.5q37 105 127 179.5 t180 74.5q91 0 129.5 -75t1.5 -179q-37 -105 -127.5 -179.5t-181.5 -74.5t-129 74.5z" />
<glyph unicode="&#x3c;" horiz-adv-x="1650" d="M397 702v3h2l113 264l834 374l-152 -280l-547 -248l295 -225l-104 -195l-439 307h-2z" />
<glyph unicode="=" horiz-adv-x="2080" d="M397 487l115 211h1071l-115 -211h-1071zM590 864l115 211h1071l-115 -211h-1071z" />
<glyph unicode="&#x3e;" horiz-adv-x="1650" d="M397 395l150 281l547 248l-295 225l104 194l440 -307h3h-3l3 -2h-3l-112 -264z" />
<glyph unicode="?" horiz-adv-x="1269" d="M205 60.5q38 -74.5 129 -74.5t181.5 74.5t127.5 179.5q37 104 -1.5 179t-129.5 75q-90 0 -180 -74.5t-127 -179.5q-38 -105 0 -179.5zM414 729q0 60 33 119t89.5 109t129 99.5t153 96t161 92.5t153 94.5t129 96.5t89.5 104t33 113q0 55 -45.5 93t-126.5 38 q-74 0 -137.5 -33.5t-105.5 -86t-71.5 -117t-42.5 -124t-13 -110.5h-271q0 93 34.5 192.5t99.5 190.5t149.5 164t193.5 116t222 43q119 0 224.5 -40t174 -119t68.5 -179q0 -92 -28 -174.5t-76.5 -146.5t-113 -122.5t-137 -103t-149.5 -86t-149.5 -74t-137 -65.5t-113 -61.5 t-76.5 -60.5t-28 -64z" />
<glyph unicode="@" horiz-adv-x="2965" d="M166 281q0 256 80.5 502t221.5 450t336 377t419.5 292t477 185.5t503.5 66.5q256 0 444 -82.5t294.5 -254t106.5 -418.5q0 -180 -56 -362t-148.5 -332.5t-212.5 -283.5t-247 -224.5t-253 -144t-229 -52.5q-80 0 -139 14t-91.5 38.5t-50.5 58t-17 72t9 81.5 q-107 -117 -223 -190.5t-226 -73.5q-83 0 -142.5 37t-86.5 107.5t-23 163t50 213t131 249.5q105 160 210.5 277.5t198.5 183.5t173 96.5t151 30.5q86 0 147.5 -66.5t79.5 -163.5l123 230h324q-297 -541 -381 -709q-24 -48 -39.5 -104.5t-19.5 -108.5t14 -86.5t57 -34.5 q57 0 133.5 47.5t156.5 128.5t158.5 195t139.5 239t99 269.5t38 278.5q0 78 -11 144t-31 115t-48 89.5t-61.5 67.5t-72 48t-79.5 32t-83 19.5t-83.5 9.5t-81 3t-75.5 0h-11.5h-10.5h-11q-108 0 -230.5 -25.5t-250 -76t-256.5 -120.5t-252 -163.5t-234 -201.5t-203.5 -237.5 t-160.5 -267.5t-106 -296.5t-38 -319.5q0 -151 46.5 -277t121 -208.5t171 -140t194.5 -82.5t194 -25q135 0 263.5 23t218.5 53.5t178 74.5t133.5 73t92.5 62q7 6 12 9t9 6q30 18 53 4.5t40 -48t28 -71t16 -64.5l5 -28q-8 -4 -60.5 -34t-80.5 -44.5t-95 -45.5t-119.5 -49.5 t-136.5 -42.5t-164.5 -37.5t-185.5 -23.5t-215 -10q-237 0 -431 70t-322 193t-197.5 289.5t-69.5 361.5zM1327 419q3 -91 66 -95q79 0 205.5 117.5t224.5 283.5q111 184 115 306q-3 91 -66 95q-79 0 -205.5 -117.5t-224.5 -283.5q-111 -184 -115 -306z" />
<glyph unicode="A" horiz-adv-x="2158" d="M232 355q65 172 250 315q278 215 706 266q99 12 203 14l1028 1069h323q-643 -1204 -731 -1370q-31 -53 -55 -113q-16 -40 -16 -59q0 -9 4 -12q9 -11 33 5t64 50l4.5 4.5t4.5 4t5.5 4.5t4.5 4q58 48 386 360t388 375q22 22 31 -31q5 -28 5 -55q0 -29 -6 -56q-3 -13 -7 -18 q-76 -78 -433 -436t-464 -459q-227 -217 -375 -217q-52 0 -86 19q-35 19 -49 56q-8 20 -7 46q0 23 6 52q13 61 56 138q15 27 252 469h-299q-158 -172 -256 -286q-85 -99 -145.5 -163.5t-138 -133t-146 -107t-151.5 -63.5t-172 -25q-156 0 -216 104q-29 51 -29 114 q0 62 28 135zM438 244q15 -17 47 -17q40 0 79 9t95.5 35t130.5 83.5t160 143.5q22 23 114 117t159 163q-313 -21 -557 -192q-146 -102 -211 -215q-31 -54 -31 -89q0 -23 14 -38zM1612 952q113 0 239 4q226 422 336 631q-169 -185 -575 -635z" />
<glyph unicode="B" horiz-adv-x="2564" d="M227 355q57 172 236 315q269 215 694 266q77 142 221.5 412.5t250.5 470.5l106 200h364q-35 -68 -90 -172q234 172 410 172q87 0 153 -32t100 -91q33 -58 34 -132q0 -77 -52 -174q-51 -96 -149 -193q-63 -63 -150 -117q84 -17 144 -68q59 -52 87 -128q26 -73 26 -161v-9 q-2 -94 -40 -203t-110 -217q-75 -112 -163.5 -199.5t-175 -142t-180 -89.5t-176 -49t-165.5 -14q-420 0 -465 326q-87 -96 -174 -162t-172.5 -100.5t-163.5 -49t-166 -14.5q-157 0 -221 105q-35 56 -35 128q0 56 22 122zM442 338q-9 -28 -10 -50q0 -39 31 -54q14 -7 35 -7 q236 0 561 533q-274 -51 -463 -216q-120 -105 -154 -206zM1360 635q-29 -70 -29 -129q0 -64 34 -116q66 -99 191 -99q133 0 293.5 106.5t288.5 296.5q66 97 88 184q12 46 12 84q0 34 -10 62q-20 60 -86 88q-39 16 -92 16q-36 0 -78 -8q-80 -14 -159 -43t-139.5 -62.5 t-94.5 -55.5t-59 -41q-18 -32 -41.5 -75t-38 -69.5t-23.5 -40.5q-8 -16 -17.5 -32.5t-21.5 -36t-18 -29.5zM1708 1276q94 19 213.5 65t226.5 123q148 109 204 209q24 42 24 72q0 39 -40 56q-26 11 -69 11q-56 0 -120 -28t-121.5 -73t-97.5 -82.5t-73 -74.5 q-54 -103 -147 -278z" />
<glyph unicode="C" horiz-adv-x="1437" d="M182 453q-7 51 -7 105q0 63 10 130q18 125 86 277.5t182 312.5q120 169 257.5 303t259 214t244 132.5t214 72t167.5 19.5q169 0 225 -129q24 -55 24 -121q0 -74 -30 -163q-58 -172 -192 -293q-50 -45 -104 -76q-46 -27 -88 -29h-11q-33 0 -55 13q-26 15 -45 34t-27 35 l-8 17q153 104 259 259q86 127 86 206v8q-6 56 -62 57q-62 0 -149 -42t-188.5 -121.5t-216.5 -212.5t-216 -298q-106 -171 -159 -324q-49 -142 -50 -250q0 -8 1 -16q4 -113 71 -179t194 -66q92 0 191.5 31t189 84t175 117t159 136.5t129.5 136t98 121.5q14 20 29 20 q17 0 35 -23q32 -41 36 -103v-9q0 -30 -12 -48q-63 -99 -152.5 -203.5t-208.5 -210.5t-246 -189.5t-273 -135.5t-281 -52q-101 0 -192 30t-162.5 89.5t-121 141.5t-65.5 192z" />
<glyph unicode="D" horiz-adv-x="2588" d="M227 355q57 172 236 315q269 215 694 266q77 142 221.5 412.5t250.5 470.5l106 200h364q-35 -68 -90 -172q234 172 410 172q105 0 188.5 -41.5t138 -115.5t78.5 -182q17 -78 16 -168q0 -34 -2 -70q-9 -129 -57 -285.5t-133 -320.5q-100 -193 -217.5 -344t-225.5 -241.5 t-222 -149t-205 -80t-176 -21.5q-420 0 -465 326q-87 -96 -174 -162t-172.5 -100.5t-163.5 -49t-166 -14.5q-157 0 -221 105q-35 56 -35 128q0 56 22 122zM442 338q-9 -28 -10 -50q0 -39 31 -54q14 -7 35 -7q236 0 561 533q-274 -51 -463 -216q-120 -105 -154 -206z M1360 635q-29 -70 -29 -129q0 -64 34 -116q66 -99 191 -99q366 0 752 710q78 144 121 273q43 130 49 226q1 21 1 40q0 72 -17 128q-22 72 -72.5 108t-122.5 36q-56 0 -120 -28t-121.5 -73t-97.5 -82.5t-73 -74.5q-373 -707 -438 -821q-8 -16 -17.5 -32.5t-21.5 -36 t-18 -29.5z" />
<glyph unicode="E" horiz-adv-x="1548" d="M237 444q-2 20 -2 39q0 71 23 149q29 98 96 191q256 353 699 439q-119 96 -127 256q0 9 -1 19q0 151 115 318q56 77 128.5 136.5t138 92.5t134.5 54.5t115.5 28t83.5 6.5q121 0 210.5 -37t135.5 -98t54 -142q2 -17 1 -33q0 -65 -24 -133q-31 -86 -106.5 -175.5 t-186.5 -163.5q-18 -11 -52 -15q-11 -1 -23 -2q-23 0 -46 5q-35 7 -66.5 28t-45.5 53q153 103 258 259q87 128 87 207v7q-4 58 -62 58q-111 0 -247.5 -77.5t-223.5 -211.5q-72 -112 -72 -228v-18q6 -125 94 -168q18 2 51 2q26 0 45 -43q14 -33 14 -65q0 -10 -1 -21 q-6 -43 -41 -43q-80 0 -170.5 -25.5t-182.5 -74.5t-172.5 -133.5t-128.5 -190.5q-31 -77 -31 -141q0 -25 4 -47q16 -82 85.5 -130t171.5 -48q92 0 191.5 31t189 84t175 117t159 136.5t129.5 136t98 121.5q14 20 28 20q16 0 34 -23q33 -41 36 -104q1 -35 -12 -56 q-62 -99 -151 -203.5t-208 -210.5t-246 -189.5t-273 -135.5t-281 -52q-133 0 -243.5 35t-185 95t-119.5 142t-53 172z" />
<glyph unicode="F" horiz-adv-x="1912" d="M234 354q65 172 250 315q277 216 704 267q129 234 434 811h-526q-26 0 -39 22q-14 25 -2 46l78 155q22 49 77 49h555h324h629q29 0 45 -26q8 -13 8 -27q0 -12 -6 -24l-66 -130q-13 -30 -41.5 -47.5t-62.5 -17.5h-627q-62 -115 -186.5 -343t-177.5 -327h362q31 0 47 -26 q14 -31 -2 -56l-88 -172q-36 -55 -102 -55h-373q-17 -29 -21 -35q-101 -179 -206.5 -312t-199.5 -212.5t-196.5 -127.5t-188.5 -64.5t-185 -16.5q-156 0 -216 104q-29 51 -29 114q0 62 28 136zM441 336q-14 -34 -14 -57q0 -32 26 -45q14 -7 34 -7q51 0 114 27t140 84.5 t168.5 166t180.5 255.5q-277 -51 -480 -219q-128 -105 -169 -205z" />
<glyph unicode="G" horiz-adv-x="1970" d="M182 453q-7 51 -7 105q0 63 10 130q18 125 86 277.5t182 312.5q87 122 184 226.5t187.5 179t185 133.5t177 96.5t162.5 61.5t142 34t115 10q84 0 149.5 -24.5t106 -66t63.5 -97.5t25 -119v-14q0 -56 -14 -115q-15 -67 -47 -129t-81.5 -119t-111.5 -98q-30 -18 -62 -18 t-63 14t-55 30.5t-39 30.5l-15 13q177 137 245 289q30 68 30 119q0 42 -20 73q-32 49 -107 49q-49 0 -118 -25.5t-156 -80.5t-176 -132t-185.5 -190.5t-177.5 -245.5q-106 -171 -159 -324q-49 -142 -49 -250v-16q4 -113 71 -179t194 -66q341 0 698 440h-249q-25 0 -39 25 q-13 23 0 47l77 129q21 41 74 41h443l159 2q-104 -197 -194 -363q-71 -135 -71 -172q0 -9 3 -12q10 -12 38 7.5t75 60.5l4 4q58 48 387.5 360.5t388.5 374.5q21 22 31 -31q5 -27 5 -52q0 -31 -7 -58q-4 -14 -8 -19q-70 -73 -429 -433t-466 -462q-230 -217 -375 -217 q-89 0 -125 54q-17 27 -17 67q0 39 17 90q-277 -211 -551 -211q-101 0 -192 30t-162.5 89.5t-121 141.5t-65.5 192z" />
<glyph unicode="H" horiz-adv-x="2361" d="M234 356q65 173 251 316q277 214 703 264l577 1083h324q-362 -695 -565 -1071h526l571 1071h324q-643 -1204 -731 -1370q-31 -53 -56 -113q-17 -41 -17 -60q0 -8 3 -11q11 -11 35.5 5t67.5 53q5 5 8.5 8t7.5 6q58 48 386 360t388 375q22 22 31 -31q5 -28 5 -55 q0 -29 -6 -56q-3 -13 -7 -18q-66 -68 -428 -430.5t-469 -464.5q-227 -217 -375 -217q-52 0 -86 19t-48 56q-8 20 -8 46q0 23 6 52q13 61 56 138q6 11 240 445q-79 4 -279 10.5t-239 7.5q-8 -16 -23 -41q-85 -150 -170 -267t-166 -196t-158 -132.5t-157.5 -82.5t-152 -41 t-152.5 -12q-156 0 -216 105q-29 51 -29 114q0 62 28 135zM441 336q-14 -34 -14 -57q0 -32 26 -45q14 -7 34 -7q51 0 114 27t140 85t168.5 167t180.5 256q-277 -52 -480 -220q-128 -106 -169 -206z" />
<glyph unicode="I" horiz-adv-x="1454" d="M234 354q65 172 250 315q277 216 704 267q45 82 141 300.5t144 309.5q-40 -3 -79 -3q-131 0 -254 36q-159 47 -243 137q-35 38 -43 80q-3 14 -3 28q-1 26 9 46q14 32 35 59t39 41l18 15q61 -81 141.5 -137t161.5 -80q81 -22 167 -28q19 -1 39 -2q65 0 120 15l8 16 q9 16 29.5 58.5t35 70t40 70.5t48 72t56 62.5t67 54t77 34t90.5 13.5q207 0 207 -99v-7q-8 -112 -246 -312q-57 -48 -121 -96q-66 -129 -240.5 -499t-224.5 -458q-102 -180 -205 -312.5t-194 -212t-190 -127.5t-184 -64.5t-183 -16.5q-156 0 -216 104q-29 51 -29 114 q0 62 28 136zM441 336q-14 -34 -14 -57q0 -32 26 -45q14 -7 34 -7q51 0 114 27t140 84.5t168.5 166t180.5 255.5q-277 -51 -480 -219q-128 -105 -169 -205z" />
<glyph unicode="J" horiz-adv-x="1464" d="M227 355q57 172 236 315q269 215 694 266q77 142 221.5 412.5t250.5 470.5l106 200h364q-580 -1106 -682 -1286t-205 -312.5t-194 -212t-190 -127.5t-184 -64.5t-183 -16.5q-157 0 -221 105q-35 56 -35 128q0 56 22 122zM442 338q-9 -28 -9 -50q0 -39 30 -54q14 -7 35 -7 q236 0 561 533q-274 -51 -463 -216q-120 -105 -154 -206z" />
<glyph unicode="K" horiz-adv-x="2369" d="M234 356q65 173 251 316q277 214 703 264l577 1083h344q-192 -367 -374 -712l813 712h397l-1188 -960q67 -19 112.5 -50.5t67.5 -70.5q21 -39 33 -87q11 -46 11 -96q0 -26 -1 -116q-2 -69 -9 -166q-5 -48 -5 -78q0 -20 2 -32q6 -29 37 -29q46 0 143 83q29 25 101 91 q21 19 32 29q67 60 395 370t380 365q21 22 30 -29q5 -29 5 -56q0 -30 -6 -57q-3 -13 -7 -18q-25 -26 -210 -210.5t-408 -406.5t-279 -278l-13 -13q-51 -51 -75 -74t-63.5 -54t-70 -43.5t-73.5 -22.5t-94 -10q-52 0 -90 10.5t-62.5 27.5t-39 45.5t-20.5 58.5t-6 73.5t3 82 t8 92.5q1 12 2 18q6 76 6 137q0 93 -14 155q-24 102 -106 113l-3 -2q-18 -33 -43 -78q-101 -179 -206.5 -311.5t-199.5 -211.5t-196.5 -127t-188.5 -64.5t-185 -16.5q-156 0 -216 105q-29 51 -29 114q0 62 28 135zM441 336q-14 -34 -14 -57q0 -32 26 -45q14 -7 34 -7 q51 0 114 27t140 85t168.5 167t180.5 256q-277 -52 -480 -220q-128 -106 -169 -206z" />
<glyph unicode="L" horiz-adv-x="2535" d="M209 346q19 153 146 263q175 153 481 153h31q104 -2 220 -23q31 51 43 74q47 80 283 522q-182 45 -278 146q-36 38 -43 80q-2 13 -2 26q0 26 10 48q15 32 35.5 58.5t38.5 40.5l18 15q123 -166 321 -221l127 241q24 45 37 69.5t45.5 77t58.5 85t67.5 75.5t81 67.5t91 42.5 t105.5 18q99 0 164.5 -41t89.5 -107q20 -54 21 -120q0 -14 -1 -28q-5 -83 -37.5 -166.5t-90 -161.5t-130.5 -132q-152 -112 -373 -135q-226 -434 -309 -580q-40 -67 -47 -80q69 -27 178 -72t184 -75t173.5 -66.5t174.5 -54t157 -27.5q36 -4 69 -4q42 0 82 7q70 12 129 45 q-1 -8 -4 -23t-17 -57t-32.5 -80.5t-53.5 -85t-78 -80.5t-108 -57t-141 -23q-104 0 -215 42.5t-196 97.5t-219.5 138.5t-244.5 137.5q-77 -99 -156.5 -173t-151 -119.5t-149 -73.5t-145.5 -38t-145 -10q-154 0 -238 109q-60 80 -60 184q0 25 3 51zM447 337q-2 -11 -1 -20 q0 -49 37 -75q23 -15 56 -15q77 0 168.5 66t220.5 223q-84 16 -155 16q-141 0 -234 -63q-80 -55 -92 -132zM1878 1524q114 26 188 94q113 104 135 213q5 22 5 40q0 42 -25 60q-12 8 -27 8q-22 0 -42.5 -12.5t-38 -37.5t-30 -47t-29.5 -55l-9 -18q-17 -34 -127 -245z" />
<glyph unicode="M" horiz-adv-x="3186" d="M227 357q58 172 236 315q269 214 694 264l578 1083h385q-23 -42 -62 -116q208 157 432 157q142 0 222 -63q77 -60 77 -171v-11q245 245 533 245q103 0 172 -36q70 -36 100 -104q19 -43 20 -101q0 -33 -6 -71q-18 -104 -85 -230q-108 -207 -280.5 -528.5t-182.5 -340.5 q-32 -55 -56 -114q-16 -40 -16 -58q0 -9 4 -12q2 -3 7 -3q22 0 93 61q11 9 17 14q58 48 386 360t388 375q22 22 31 -31q5 -28 5 -55q0 -29 -6 -56q-3 -13 -7 -18q-76 -78 -433 -436t-464 -459q-227 -217 -396 -217q-52 0 -86 19q-35 19 -49 56q-8 20 -7 46q0 23 6 52 q13 61 56 138q23 41 123.5 235.5t249.5 482.5t252 484q70 130 70 222v13q-5 96 -93 95q-131 0 -235.5 -84t-218.5 -264q-95 -180 -295 -553.5t-353 -656.5l-153 -283h-346q600 1138 797 1516q47 92 61 166q6 29 6 53q0 37 -14 63q-22 42 -80 43q-143 0 -260 -104t-236 -314 q-344 -646 -370 -692q-101 -179 -206.5 -311.5t-200 -211.5t-196.5 -127t-188.5 -64.5t-185.5 -16.5q-157 0 -222 106q-34 56 -34 126q0 57 22 123zM442 338q-9 -28 -9 -50q0 -39 30 -54q14 -7 35 -7q236 0 561 535q-274 -52 -463 -218q-120 -105 -154 -206z" />
<glyph unicode="N" horiz-adv-x="2355" d="M227 357q58 172 236 315q269 214 694 264l578 1083h385q-23 -44 -62 -116q212 157 432 157q104 0 173.5 -36.5t99.5 -104.5q19 -43 19 -100q0 -33 -6 -71q-18 -103 -85 -230q-224 -428 -463 -869q-30 -57 -54 -115q-16 -39 -17 -57q0 -8 4 -12q10 -11 35.5 6t72.5 59 q2 2 3 2.5t2.5 2l2.5 2.5q58 48 388 360.5t389 374.5q21 22 30 -29q5 -28 5 -53q0 -30 -7 -58q-3 -15 -8 -20q-46 -47 -422 -415.5t-493 -479.5q-230 -217 -377 -217q-51 0 -84.5 19t-47.5 56q-8 20 -8 46q0 23 6 52q13 61 56 138q22 40 122.5 235.5t249 482.5t251.5 484 q70 130 70 222v13q-5 96 -93 95q-145 0 -264 -107.5t-240 -322.5q-252 -482 -362 -680q-101 -179 -206.5 -311.5t-200 -211.5t-196.5 -127t-188.5 -64.5t-185.5 -16.5q-157 0 -222 106q-34 56 -34 126q0 57 22 123zM442 338q-9 -28 -9 -50q0 -39 30 -54q14 -7 35 -7 q236 0 561 535q-274 -52 -463 -218q-120 -105 -154 -206z" />
<glyph unicode="O" horiz-adv-x="2039" d="M462 453q-7 51 -7 105q0 63 10 130q18 125 86 277.5t182 312.5q101 142 213.5 259t218.5 195.5t208.5 136.5t196.5 89.5t168.5 46t137.5 14.5q140 0 200 -85q48 -67 47 -164q0 -26 -3 -54q84 -40 84 -131v-6q-3 -184 -46.5 -373.5t-118.5 -364.5t-185 -328.5t-239 -267 t-287.5 -179.5t-323.5 -66q-101 0 -192 30t-162.5 89.5t-121.5 141.5t-66 192zM828 379q8 -102 64.5 -162.5t156.5 -60.5q114 0 241 101.5t236.5 263t200 362.5t141.5 401q-57 -40 -70 -47q-46 -27 -88 -29h-11q-33 0 -55 13q-26 15 -44.5 34t-26.5 35l-8 17 q153 104 258 259q86 127 86 206v8q-6 56 -62 57q-62 0 -149 -42t-188.5 -121.5t-216.5 -212.5t-216 -298q-85 -137 -145 -280.5t-86 -272.5q-20 -97 -20 -179q0 -27 2 -52z" />
<glyph unicode="P" horiz-adv-x="2289" d="M227 355q57 172 236 315q269 215 694 266q77 142 221.5 412.5t250.5 470.5l106 200h364q-35 -68 -90 -172q234 172 410 172q85 0 153.5 -38.5t109 -110.5t51.5 -166q3 -25 3 -52q0 -74 -22 -161q-30 -120 -101 -244q-88 -155 -187 -269.5t-196.5 -179.5t-189 -95.5 t-180.5 -30.5q-287 0 -342 246q-70 -134 -101 -185q-102 -180 -205 -312.5t-194 -212t-190 -127.5t-184 -64.5t-183 -16.5q-157 0 -221 105q-35 56 -35 128q0 56 22 122zM442 338q-9 -28 -10 -50q0 -39 31 -54q14 -7 35 -7q236 0 561 533q-274 -51 -463 -216 q-120 -105 -154 -206zM1696 1131q1 -26 8 -58.5t23 -53t46 -34.5t72 -14q105 0 200.5 79t195.5 253q113 192 132 340q3 24 3 44q0 110 -86 123q-11 2 -23 2q-56 0 -120 -28t-121.5 -73t-97.5 -82.5t-73 -74.5q-5 -10 -55.5 -107t-77.5 -147q-7 -29 -11.5 -48t-10.5 -57 q-5 -32 -4 -56v-8z" />
<glyph unicode="Q" horiz-adv-x="2039" d="M462 453q-7 51 -7 105q0 63 10 130q18 125 86 277.5t182 312.5q101 142 213.5 259t218.5 195.5t208.5 136.5t196.5 89.5t168.5 46t137.5 14.5q139 0 200 -85q47 -67 47 -164q0 -26 -3 -54q84 -40 84 -131v-6q-5 -290 -104 -581.5t-279 -530.5t-406 -361 q-5 -145 -51 -271.5t-121 -196.5q-39 -36 -81 -44q-14 -2 -27 -2q-26 0 -47 10q-32 14 -58.5 34.5t-40.5 38.5l-14 18q172 131 223 330q-100 -23 -194 -23q-101 0 -192 30t-162.5 89.5t-121.5 141.5t-66 192zM826 468q-1 -15 -1 -30q0 -74 17 -132q21 -71 73.5 -110.5 t133.5 -39.5q84 0 170 53q-3 96 -33 180.5t-80 138.5q-63 69 -129.5 103.5t-118.5 36.5q-28 -109 -32 -200zM918 846q103 -29 198.5 -92t159.5 -150q77 -107 115 -254q152 162 281 417t196 517q-57 -40 -70 -47q-46 -26 -88 -29h-11q-34 0 -55 13q-26 15 -44.5 34t-26.5 35 l-8 17q153 104 258 259q86 127 86 206v8q-6 56 -62 57q-62 0 -149 -42t-188.5 -121.5t-216.5 -212.5t-216 -298q-97 -161 -159 -317z" />
<glyph unicode="R" horiz-adv-x="2283" d="M227 355q57 172 236 315q269 215 694 266q77 142 221.5 412.5t250.5 470.5l106 200h364q-35 -68 -90 -172q234 172 410 172q85 0 153.5 -38.5t109 -110.5t51.5 -166q3 -25 3 -52q0 -74 -22 -161q-30 -120 -101 -244q-143 -251 -305.5 -389t-325.5 -174v-45 q-2 -67 -8 -162q-5 -50 -5 -80q1 -21 3 -33q6 -30 35 -30q26 0 64.5 23.5t72 52.5t104.5 94q8 7 12 11t11 10.5t13 11.5q68 61 396 370.5t380 364.5q21 22 30 -29q5 -28 5 -53q0 -30 -7 -58q-3 -15 -8 -20l-895 -895q-111 -109 -153 -141q-91 -69 -204 -75q-16 -1 -32 -1 q-114 0 -166 50q-51 50 -52 133q0 80 9 199q1 17 2 26q6 62 6 116q-1 98 -21 166q-32 106 -114 121q-39 -72 -43 -78q-102 -180 -205 -312.5t-194 -212t-190 -127.5t-184 -64.5t-183 -16.5q-157 0 -221 105q-35 56 -35 128q0 56 22 122zM442 338q-9 -28 -10 -50 q0 -39 31 -54q14 -7 35 -7q236 0 561 533q-274 -51 -463 -216q-120 -105 -154 -206zM1692 1136q1 -18 3 -43t11 -43.5t23 -33.5q41 -25 57 -37q32 -8 59 -8q105 0 200.5 79t195.5 253q113 192 132 340q3 24 3 44q0 110 -86 123q-11 2 -23 2q-56 0 -120 -28t-121.5 -73 t-97.5 -82.5t-73 -74.5q-5 -10 -55.5 -107t-77.5 -147q0 -1 -8 -32t-10 -42.5t-8 -41.5q-5 -26 -4 -43v-5z" />
<glyph unicode="S" horiz-adv-x="1337" d="M167 398v6q-1 76 25 157q26 84 78 160l124 23q68 10 107 10q51 0 51 -17q0 -3 -1 -6l-6 -10q-80 -150 -80 -260q0 -19 2 -37q16 -122 95 -181q56 -43 119 -43q25 0 52 7q51 14 83 39.5t49.5 71.5t25 94.5t12.5 130.5q1 21 1 43q0 52 -6 107q-10 78 -22 130t-49.5 192 t-58.5 226q-9 56 -9 111q-1 73 15 143q26 123 95 226.5t185 182t267 119.5q79 21 153 23q7 0 14 1q66 -1 122 -15q62 -16 111.5 -48t81.5 -76t44 -102q7 -32 6 -67q1 -27 -3 -55q-10 -64 -47.5 -138.5t-100.5 -150.5q-18 -23 -80 -42q-57 -18 -118 -18q-5 1 -9 1 q-65 2 -86 32q162 186 162 320q0 13 -1 25q-11 85 -88 117q-33 13 -68 13q-28 0 -58 -8q-132 -37 -180 -143q-37 -82 -37 -229q0 -43 4 -93q6 -97 40 -218.5t63 -243.5q28 -117 28 -226v-8q-1 -93 -14.5 -170.5t-46.5 -154t-85.5 -135.5t-136 -108t-194.5 -79 q-117 -31 -215 -31h-9q-101 2 -176 36.5t-127 88t-77 126.5t-26 151z" />
<glyph unicode="T" horiz-adv-x="1474" d="M234 354q65 172 250 315q277 216 704 267q129 234 434 811h-604q-26 0 -39 22q-14 25 -2 46l78 155q10 23 31.5 36t46.5 13h632h324h551q29 0 45 -26q8 -13 8 -27q0 -12 -6 -24l-66 -130q-13 -30 -41.5 -47.5t-62.5 -17.5h-549q-481 -909 -541 -1014 q-101 -179 -206.5 -312t-199.5 -212.5t-196.5 -127.5t-188.5 -64.5t-185 -16.5q-156 0 -216 104q-29 51 -29 114q0 62 28 136zM441 336q-14 -34 -14 -57q0 -32 26 -45q14 -7 34 -7q51 0 114 27t140 84.5t168.5 166t180.5 255.5q-277 -51 -480 -219q-128 -105 -169 -205z" />
<glyph unicode="U" horiz-adv-x="1968" d="M404 144q-15 40 -15 89q0 126 96 312q487 922 521 983q38 69 63 119.5t43 99.5q13 36 13 60q0 9 -2 15q-6 26 -36 25q-32 0 -95 -45.5t-133.5 -118t-139 -178t-105.5 -211.5q-49 16 -78.5 33t-44.5 33t-16 38t5 41t20 50q15 33 58 94.5t120.5 146t167.5 157t209 124 t235 51.5q42 0 80.5 -11.5t69 -37t46.5 -61.5q11 -25 12 -57q0 -15 -3 -31q-7 -52 -41 -113q-323 -597 -606 -1137q-101 -190 -101 -270q0 -59 54 -59q71 0 167 61.5t193.5 157t210.5 230t208 263t195.5 274.5t164 244.5t122.5 192.5l166 311h326q-643 -1204 -731 -1370 q-31 -53 -56 -113q-17 -41 -17 -60q0 -8 3 -11t8 -3q24 0 100 66q2 2 3.5 3t3.5 3t4 3q58 49 387.5 362t386.5 373q21 22 30 -29q6 -30 6 -58t-6 -54q-3 -14 -7 -19q-66 -68 -428 -430.5t-469 -464.5q-230 -217 -375 -217q-52 0 -86 19q-35 19 -49 56q-8 20 -7 46q0 23 6 52 q13 61 56 138q6 11 63 118.5t107 199.5q-480 -627 -821 -627q-210 0 -262 142z" />
<glyph unicode="V" horiz-adv-x="1613" d="M388 249q0 7 -1 14q0 117 86 282q77 145 199.5 377.5t211 399t109.5 206.5q39 70 63.5 120t42.5 99q13 37 13 60q0 9 -1 15q-6 26 -36 25q-32 0 -95 -45.5t-133.5 -118t-139 -178t-105.5 -211.5q-49 16 -79 32.5t-44.5 32t-15.5 37.5t4.5 41t19.5 50q15 33 58 94.5 t121 146t167.5 157t209 124t235.5 51.5q54 0 105.5 -18.5t91.5 -57.5q41 -38 45 -96v-12q0 -55 -37 -127q-317 -587 -606 -1135q-100 -191 -101 -271q0 -58 53 -58q62 0 213.5 178.5t323.5 433.5t334.5 510t269.5 433l107 179h331q-14 -26 -39.5 -71t-106.5 -182.5 t-164 -271.5t-204 -315.5t-235.5 -338t-249.5 -316t-254.5 -271.5t-241 -182.5t-219.5 -70.5q-139 0 -219.5 64t-86.5 185z" />
<glyph unicode="W" horiz-adv-x="2562" d="M388 249q0 7 -1 14q0 117 86 282q77 145 199.5 377.5t211 399t109.5 206.5q20 35 60 104q81 136 90 175q9 40 -27 40q-26 0 -75.5 -28t-112 -81t-124.5 -119.5t-117 -153t-85 -171.5q-49 16 -79 32.5t-44.5 32t-15.5 37.5t4.5 41t19.5 50q15 33 58 94.5t121 146 t167.5 157t209 124t235.5 51.5q54 0 105.5 -18.5t91.5 -57.5q41 -38 45 -96v-12q0 -55 -37 -127q-317 -587 -606 -1135q-100 -191 -101 -271q0 -58 53 -58q65 0 152 52t176 135t191.5 200.5t193 235t186 252t165 239t135.5 207.5l221 411l325 2q-151 -283 -323 -604 q-343 -644 -426 -801q-93 -188 -93 -269q0 -57 46 -60q62 0 213.5 178.5t323 433.5t334 510t269.5 433l107 179h332q-14 -26 -39.5 -71t-106.5 -182.5t-164 -271.5t-204.5 -315.5t-236 -338t-249 -316t-254.5 -271.5t-241.5 -182.5t-219.5 -70.5q-210 0 -262 142 q-14 40 -14 89q0 126 96 314q20 35 25 45q-462 -590 -793 -590q-139 0 -219.5 64t-86.5 185z" />
<glyph unicode="X" horiz-adv-x="1921" d="M20 0l1328 1151q26 149 41 251q15 104 27 216q6 62 6 107q0 37 -4 63q-10 58 -40 59q-32 0 -95 -45.5t-133.5 -118t-139 -178t-105.5 -211.5q-49 16 -78.5 33t-44.5 33t-16 38t5 41t20 50q15 33 58 94.5t121 146t168 157t209.5 124t235.5 51.5q145 0 187 -123 q24 -72 25 -200q0 -92 -13 -213l571 493h381l-1003 -874q-58 -411 -66 -500q-6 -66 -6 -111q0 -94 27 -94q10 0 22 4.5t22 10t25.5 17.5t24 19.5t27.5 23.5t26 22q58 49 387.5 362t386.5 373q21 22 30 -29q6 -30 5.5 -58t-5.5 -54q-3 -14 -7 -19q-66 -68 -428 -430.5 t-469 -464.5q-230 -217 -375 -217q-29 0 -51.5 11.5t-37.5 35t-25.5 51.5t-14.5 70q-3 42 -5 81q0 11 -1 22q0 31 3 71q4 54 8.5 98t13 104.5t15.5 104t17 103.5l-860 -752h-400z" />
<glyph unicode="Y" horiz-adv-x="1925" d="M416 -195q65 173 250 316q278 216 704 266q49 90 254 467q-361 -387 -680 -387q-211 0 -262 142q-15 39 -15 88q0 126 97 315q82 156 137.5 258t96 172.5t49.5 85.5q38 69 63 119.5t42 99.5q14 36 14 60q0 8 -2 15q-6 25 -36 25q-32 0 -95 -45.5t-133.5 -118t-139 -178 t-105.5 -211.5q-49 16 -78.5 33t-44.5 33t-16 38t5 41t20 50q15 33 58 94.5t120.5 146t167.5 157t209 124t235 51.5q42 0 80.5 -11.5t69 -37t46.5 -61.5q11 -24 11 -57q0 -15 -2 -31q-7 -52 -41 -113q-14 -26 -58.5 -101.5t-123.5 -217.5t-189 -351q-98 -191 -98 -271 q0 -49 37 -57l16 -1q61 0 133.5 31.5t143.5 83t149.5 125t147.5 148.5t141.5 163.5t127 160t108.5 146.5l219 409h344q-881 -1655 -983 -1835q-101 -179 -206.5 -312t-200 -212.5t-196.5 -127.5t-188.5 -64.5t-185.5 -16.5q-156 0 -216 105q-29 51 -29 114q0 62 28 135z M624 -213q-14 -34 -14 -57q0 -32 26 -45q14 -7 34 -7q40 0 87 15.5t108 54.5t124 98t137 153t146 212q-277 -51 -480 -219q-127 -105 -168 -205z" />
<glyph unicode="Z" horiz-adv-x="1761" d="M64 -149q34 171 194 313q216 192 580 254h6q26 0 47 -33q23 -37 31 -76l8 -39q-289 -21 -486 -162q-130 -94 -166 -200q-11 -33 -11 -61q0 -54 41 -88q46 -38 136 -38q233 0 468 194q185 153 302 365q102 185 102 324q0 16 -1 31q-12 145 -149 173q-29 6 -63 6 q-114 0 -284 -66v2l-2 -2q-17 -9 -31 -9.5t-24 7t-17.5 17.5t-13.5 25.5t-10 29t-8.5 29t-7.5 23.5q-5 13 16.5 28t73.5 37t115.5 49t161 76.5t192.5 106.5q298 180 436 367q76 104 76 170q0 14 -3 26q-12 48 -73 48q-83 0 -176 -56t-169 -150t-112 -200q-38 2 -68 17 q-31 15 -49 45q-11 18 -11 44q0 17 5 37q12 52 60 119q55 78 121.5 147.5t154 136t194.5 105.5t218 39q155 0 221 -112q36 -63 36 -143q0 -63 -22 -138q-61 -200 -254 -375q-50 -45 -106 -86q-52 -38 -125 -79t-126 -67t-129 -61t-97 -45h3q280 0 376 -169q43 -77 43 -176 q0 -92 -37 -203q-78 -234 -284 -451q-241 -256 -555 -377q-217 -83 -439 -86h-9q-168 0 -252 108q-56 73 -56 170q0 38 8 79z" />
<glyph unicode="[" horiz-adv-x="1388" d="M0 0l1083 2019h291h303l-131 -243h-368l-822 -1532h389l-131 -244h-323h-291z" />
<glyph unicode="\" horiz-adv-x="2842" d="M461 2019h244l1812 -2334h-244z" />
<glyph unicode="]" horiz-adv-x="1996" d="M291 0l131 244h369l821 1532l-389 -2l131 243l323 2h291l-1083 -2019h-291h-303z" />
<glyph unicode="^" horiz-adv-x="1382" d="M307 1051l864 604q4 3 42.5 -58.5t90 -150.5t102 -179t85.5 -153l35 -63q-4 -3 -10.5 -9t-27 -22t-40.5 -29t-47.5 -27.5t-51.5 -21.5t-49 -6t-43 14q-29 21 -59 81t-67 133t-78 116q-92 -51 -304.5 -189.5t-259.5 -160.5q-43 -18 -74 -12.5t-52 27t-33.5 45t-17.5 42.5z " />
<glyph unicode="_" horiz-adv-x="2457" d="M0 -162l90 164h2232l-90 -162z" />
<glyph unicode="`" horiz-adv-x="1705" d="M25 1886q-83 58 108 108q86 22 182 34l381 -400q-2 -3 -5.5 -7t-14.5 -17t-21.5 -22.5t-27 -22.5t-30.5 -17.5t-32.5 -7.5t-32.5 8q-99 55 -507 344z" />
<glyph unicode="a" d="M1 308q4 92 50 212.5t131 249.5t170.5 231t161 168t149 110t135 62.5t117.5 18.5q84 0 146 -67t82 -163l121 228l325 2q-293 -545 -381 -711q-30 -53 -55 -113q-17 -42 -17 -60q0 -8 3 -11t8 -3q23 0 91 59q13 11 19 16q58 48 386.5 360t388.5 375q22 22 31 -31 q5 -27 5 -52q0 -30 -7 -59q-3 -13 -7 -18q-66 -68 -428 -430.5t-469 -464.5q-227 -217 -375 -217q-91 0 -124 54q-16 25 -16 63q0 43 20 104q-221 -221 -408 -221q-83 0 -142.5 37t-87.5 107q-24 62 -24 140q0 12 1 24zM415 418q2 -91 66 -94q79 0 205.5 117.5t224.5 283.5 q112 186 116 307q-2 91 -66 94q-79 0 -206 -117.5t-227 -283.5q-110 -186 -113 -307z" />
<glyph unicode="b" horiz-adv-x="1353" d="M-162 0l1084 2019h323l-469 -874q215 215 402 215q60 0 110 -19t86.5 -57.5t57.5 -92.5q21 -53 20 -126q0 -75 -22 -165q-22 -88 -73 -197t-128 -228t-175.5 -213.5t-195.5 -149.5t-185 -83.5t-159 -28.5q-109 0 -170 57t-72 146l-110 -203h-324zM480 413q0 -88 67 -89 q78 0 204 117.5t226 283.5q112 188 114 309v3q0 88 -67 89q-78 0 -205 -118t-225 -283q-114 -192 -114 -312z" />
<glyph unicode="c" horiz-adv-x="1150" d="M50 348q-4 30 -4 61q0 79 26 169q36 126 118.5 258t178 235t186.5 164.5t174.5 93t153.5 31.5q88 0 160 -30.5t114.5 -89.5t53.5 -137q3 -18 3 -38q0 -65 -28 -143q-36 -102 -117 -211q-29 -37 -69 -45q-12 -2 -24 -3q-26 -1 -51 11q-36 16 -67.5 39t-50.5 43l-19 20 q86 73 143 186q38 74 38 116q0 20 -9 33q-11 15 -34 15q-80 0 -206 -117.5t-224 -283.5q-84 -139 -98 -249q-3 -22 -3 -43q-1 -79 45 -128q56 -61 176 -61q453 0 1186 1028q19 26 32 -31q10 -41 10 -75q0 -18 -3 -34l-4 -12q-68 -110 -141.5 -216t-164 -219.5t-182.5 -211 t-196.5 -186t-207 -151t-213.5 -99.5t-216 -37q-136 0 -238.5 43.5t-158 122t-69.5 182.5z" />
<glyph unicode="d" d="M1 308q4 92 50 212.5t131 249.5t170.5 231t161 168t149 110t135 62.5t117.5 18.5q84 0 146 -66t82 -161l473 886h323q-643 -1204 -731 -1370q-30 -53 -55 -113q-17 -42 -17 -60q0 -8 3 -11t8 -3q23 0 91 59q13 11 19 16q58 48 386.5 360t388.5 375q22 22 31 -31 q5 -27 5 -52q0 -30 -7 -59q-3 -13 -7 -18q-66 -68 -428 -430.5t-469 -464.5q-227 -217 -375 -217q-91 0 -124 54q-16 25 -16 63q0 43 20 104q-221 -221 -408 -221q-83 0 -142.5 37t-87.5 107q-24 62 -24 140q0 12 1 24zM415 418q2 -91 66 -94q79 0 205.5 117.5t224.5 283.5 q112 186 116 307q-2 91 -66 94q-79 0 -206 -117.5t-227 -283.5q-110 -186 -113 -307z" />
<glyph unicode="e" horiz-adv-x="1132" d="M63 516q33 152 138 320q83 132 178.5 235t186 164.5t173 93t152.5 31.5q89 0 162 -31.5t116.5 -91.5t55.5 -138q3 -19 3 -40q0 -63 -28 -140q-36 -102 -121 -208q-132 -165 -278 -233q-91 -42 -177 -42q-52 0 -102 15q-60 16 -108 61q-9 -41 -9 -77q0 -71 37 -119 q55 -72 185 -72q452 0 1185 1028q19 26 32 -31q10 -41 10 -75q0 -18 -3 -34l-4 -12q-97 -158 -204.5 -305t-245.5 -299t-275.5 -263.5t-294.5 -182t-303 -70.5q-184 0 -301 68t-155 182q-20 61 -20 133q0 62 15 133zM487 696q37 -28 77 -32q8 -1 16 -1q33 0 66 14 q42 18 76.5 41t76.5 58q85 72 142 186q37 73 37 115q0 20 -8 33q-11 16 -34 16q-80 0 -206.5 -117t-225.5 -284q-1 -2 -17 -29z" />
<glyph unicode="f" horiz-adv-x="714" d="M-883 -545q0 56 28.5 107t73 89.5t121.5 85.5t149 84t183 96.5t199 111.5q102 201 235 456h-221l80 150l219 2q268 518 445 846q54 97 94.5 160.5t91 124.5t100.5 95t114 54t140 20q39 0 81.5 -10.5t84.5 -33.5t75.5 -54t54 -76t20.5 -96q0 -57 -27.5 -107.5t-69.5 -89 t-118 -86t-145.5 -83.5t-180 -96t-196.5 -111q-109 -203 -244 -457h317q-31 -58 -80 -152h-317q-287 -536 -455 -847q-42 -72 -69.5 -117t-64.5 -98.5t-66.5 -85t-68 -64.5t-77.5 -49.5t-87 -27.5t-103 -11q-50 0 -103.5 17.5t-102 49.5t-79.5 85.5t-31 117.5zM-645 -590 q0 -88 80 -88q18 0 34.5 8t33.5 27t31 38.5t33.5 54.5t34 63t39 76t42.5 81l69 135q-203 -146 -300 -237.5t-97 -157.5zM850 1317q204 145 301.5 237t97.5 158q0 88 -80 88q-18 0 -35 -8t-33.5 -27t-31 -39t-33.5 -54.5t-33.5 -63t-38.5 -75.5t-42 -81z" />
<glyph unicode="g" horiz-adv-x="1306" d="M-233 -545q0 56 28.5 107t72.5 89.5t121 85.5t149 83.5t182.5 95.5t197.5 111l111 211q-231 -238 -426 -238q-83 0 -142.5 37t-86.5 107q-25 62 -25 140q0 12 1 24q4 92 50 212.5t131 249.5t170.5 231t161.5 168t149.5 110t135 62.5t118.5 18.5q85 0 147.5 -68.5 t80.5 -165.5l120 234h324q-262 -501 -510 -963q375 315 954 875q22 21 31 -30q5 -29 5 -56q0 -29 -6 -56q-3 -13 -7 -18q-447 -473 -1104 -950q-240 -451 -283 -524q-38 -64 -62 -103t-56.5 -89t-57.5 -79t-58 -63t-63.5 -52.5t-68.5 -35.5t-80 -24t-90 -7 q-50 0 -103.5 17.5t-101.5 49.5t-79 85.5t-31 117.5zM4 -590q0 -88 80 -88q18 0 34.5 8t33.5 27t31 38.5t33.5 54.5t34 63t39 76t42.5 81l69 135q-202 -144 -299.5 -236.5t-97.5 -158.5zM365 413q0 -88 67 -89q79 0 205.5 117.5t224.5 283.5q111 185 115 306q-2 92 -68 95 q-78 0 -204 -117.5t-226 -283.5q-114 -191 -114 -312z" />
<glyph unicode="h" horiz-adv-x="1466" d="M-162 0l1084 2019h323l-688 -1284q117 153 232 270.5t200.5 182.5t164.5 106t126 53.5t82 12.5q62 0 108 -21t74 -63q21 -32 22 -82q0 -16 -2 -33q-8 -73 -59 -166q-65 -117 -186 -346q-31 -53 -55 -113q-17 -42 -16 -59q0 -8 3 -12q10 -12 38 7.5t75 60.5l4 4 q58 48 386 360t388 375q22 22 31 -31q5 -28 5 -55q0 -29 -6 -56q-3 -13 -7 -18q-76 -78 -433 -436t-464 -459q-227 -217 -375 -217q-52 0 -86 19t-48 56q-7 19 -7 45q0 24 6 52q13 60 55 139q37 68 74 137t84.5 158.5t79.5 149.5q81 149 81 208q0 27 -17 35q-9 5 -23 5 q-44 0 -158 -89.5t-250 -226.5t-282 -325.5t-240 -362.5h-324z" />
<glyph unicode="i" horiz-adv-x="714" d="M7 173q13 61 56 138l562 1047l325 2q-293 -545 -381 -711q-30 -53 -55 -113q-17 -42 -17 -60q0 -8 3 -11q10 -11 34 5t70 55l4.5 4.5t4.5 3.5t5 4q58 49 388 362t387 373q21 22 30 -29q5 -29 5 -56q0 -30 -6 -57q-3 -13 -7 -18q-66 -68 -428 -430.5t-469 -464.5 q-230 -217 -375 -217q-52 0 -86 19q-35 19 -49 56q-8 20 -7 46q0 23 6 52zM768 1688q-18 31 -18 68q0 42 22 91q43 94 139 161t189 67q95 0 132 -67q17 -31 17 -69q0 -42 -22 -92q-41 -93 -137.5 -159t-190.5 -66t-131 66z" />
<glyph unicode="j" horiz-adv-x="700" d="M-840 -545q0 56 28.5 107t73 89.5t121 85.5t149 83.5t183 95.5t197.5 111l696 1333h324q-262 -501 -510 -963q375 315 954 875q22 21 31 -30q5 -29 5 -56q0 -29 -6 -56q-3 -13 -7 -18q-447 -473 -1104 -950q-240 -451 -283 -524q-38 -64 -62 -103t-56.5 -89t-57.5 -79 t-58 -63t-63.5 -52.5t-68.5 -35.5t-80 -24t-90 -7q-50 0 -103.5 17.5t-102 49.5t-79.5 85.5t-31 117.5zM-602 -590q0 -88 80 -88q18 0 34.5 8t33.5 27t31 38.5t33.5 54.5t34 63t39 76t42.5 81l69 135q-202 -144 -299.5 -236.5t-97.5 -158.5zM764 1688q-16 30 -16 67 q0 42 22 92q41 94 137 161t191 67q93 0 130 -67q17 -31 17 -69q0 -42 -22 -92q-41 -93 -137.5 -159t-190.5 -66t-131 66z" />
<glyph unicode="k" horiz-adv-x="1466" d="M-162 0l1084 2019h323l-553 -1030l531 369l426 2l-615 -389h33q100 0 169 -66q70 -67 80 -179q1 -14 2 -27q0 -103 -67 -234q10 -12 38 7.5t75 60.5l4 4q58 48 386 360t388 375q22 22 31 -31q5 -28 5 -55q0 -29 -6 -56q-3 -13 -7 -18q-76 -78 -433 -436t-464 -459 q-227 -217 -375 -217q-52 0 -86 19t-48 56q-7 19 -7 45q0 24 6 52q13 60 55 139q98 180 118 260q8 32 8 57q0 83 -93 83q-47 0 -121 -43.5t-164.5 -126t-197 -224.5t-201.5 -317h-324z" />
<glyph unicode="l" horiz-adv-x="731" d="M7 173q13 61 56 138l912 1708h325q-643 -1204 -731 -1370q-30 -53 -55 -113q-17 -42 -17 -60q0 -8 3 -11q10 -11 34 5t70 55l4.5 4.5t4.5 3.5t5 4q58 49 388 362t387 373q21 22 30 -29q5 -29 5 -56q0 -30 -6 -57q-3 -13 -7 -18q-66 -68 -428 -430.5t-469 -464.5 q-230 -217 -375 -217q-52 0 -86 19q-35 19 -49 56q-8 20 -7 46q0 23 6 52z" />
<glyph unicode="m" horiz-adv-x="2275" d="M-162 0l729 1358h324l-334 -625q117 153 232.5 271t201.5 183t164.5 106.5t125.5 54t81 12.5q50 0 91 -12.5t70.5 -42t39.5 -73.5q4 -16 4 -34q1 -33 -11 -76q-18 -67 -65 -149q-42 -76 -127 -240q117 153 232.5 271t201.5 183.5t165 106.5t126 53.5t82 12.5 q50 0 89.5 -11.5t68.5 -39.5t39 -71q4 -16 3 -36q0 -33 -10 -75q-16 -68 -61 -154q-113 -213 -172 -324q-32 -55 -56 -114q-16 -40 -16 -58q0 -9 4 -12q10 -12 38 7.5t75 60.5l4 4q58 48 386 360t388 375q22 22 31 -31q5 -28 5 -55q0 -29 -6 -56q-3 -13 -7 -18 q-76 -78 -433 -436t-464 -459q-227 -217 -375 -217q-52 0 -86 19t-48 56q-8 20 -8 46q0 23 6 52q13 61 56 138q37 68 74 137t84.5 158.5t79.5 149.5q81 149 81 208q0 27 -17 35q-9 5 -23 5q-42 0 -146 -79.5t-229.5 -203.5t-265 -296t-238.5 -337l-47 -88h-324 q302 568 402 758q81 152 81 209q0 15 -6 23q-10 14 -34 14q-45 0 -159.5 -89.5t-250.5 -226.5t-282 -325.5t-240 -362.5l4 6l-4 -6h-324z" />
<glyph unicode="n" horiz-adv-x="1466" d="M-162 0l729 1358h324l-334 -623q117 153 232.5 270.5t201.5 182.5t164.5 106t125.5 53.5t81 12.5q51 0 90.5 -11.5t68.5 -39.5t39 -71q3 -16 3 -35q-1 -33 -11 -76q-16 -68 -61 -154q-59 -115 -172 -324q-71 -135 -71 -172q0 -8 3 -12q10 -12 38 7.5t75 60.5l4 4 q58 48 387.5 360.5t388.5 374.5q21 22 31 -31q5 -27 5 -52q0 -30 -7 -58q-4 -14 -8 -19q-70 -73 -429 -433t-466 -462q-230 -217 -375 -217q-52 0 -86 19q-35 19 -49 56q-8 20 -7 46q0 23 6 52q13 61 56 138q40 73 114.5 214.5t123.5 230.5q80 151 80 209q0 19 -8 28 q-10 11 -31 11q-45 0 -159.5 -89.5t-250.5 -226.5t-282 -325.5t-240 -362.5l4 6l-4 -6h-324z" />
<glyph unicode="o" horiz-adv-x="1202" d="M50 302q-1 15 -1 31q0 81 30 183q36 122 114 254t162.5 236t160.5 169t152.5 108t139 60t120.5 17q45 0 53 -92q76 82 156 82q41 0 69.5 -29t39.5 -75t14 -102q1 -13 0 -25q0 -42 -7 -83q-16 -117 -49 -207q13 -2 28 -2q58 0 134 37q96 47 182 120t147 133t85 91 q29 28 53.5 10t39.5 -56q9 -23 9 -36q0 -9 -4 -14q-1 -1 -6 -7q-23 -27 -44.5 -51.5t-78 -83t-108.5 -105t-125 -102.5t-138 -91q-64 -36 -138 -56q-49 -13 -93 -13q-22 0 -43 3q-20 -38 -68 -112q-164 -246 -341 -370t-349 -124q-84 0 -149.5 36t-102.5 105t-44 161z M427 413q0 -88 67 -89q50 0 107 38t111.5 102t102.5 136t90 152q-48 76 -53 171q-1 13 -1 25q0 80 28 148q-81 -47 -174 -148t-164 -223q-114 -192 -114 -312z" />
<glyph unicode="p" horiz-adv-x="1284" d="M-596 -662l1085 2020h324l-74 -137q215 215 402 215q60 0 110 -19t86.5 -57t57.5 -92q21 -53 21 -126q0 -76 -22 -166q-22 -87 -73.5 -196.5t-128.5 -228.5t-175.5 -213.5t-195.5 -149.5t-185 -83.5t-159 -28.5q-109 0 -170 57.5t-74 147.5l-503 -943h-326zM442 494 q1 -91 68 -93q78 0 204.5 117.5t225.5 284.5q114 191 114 312q0 88 -67 89q-79 0 -205.5 -117.5t-224.5 -283.5q-113 -189 -115 -309z" />
<glyph unicode="q" horiz-adv-x="1247" d="M1 385q4 93 50 213.5t131 249.5q105 160 210.5 277.5t198.5 183.5t173 96.5t151 30.5q86 0 148 -67.5t80 -164.5l84 154h323l-1083 -2020h-324l508 951q-217 -213 -397 -213q-83 0 -142.5 37.5t-87.5 108.5q-24 61 -24 140q0 11 1 23zM415 493q1 -90 66 -92 q80 0 206 117.5t224 284.5q112 186 116 307q-2 91 -66 94q-79 0 -206 -117.5t-227 -283.5q-111 -190 -113 -310z" />
<glyph unicode="r" horiz-adv-x="968" d="M260 172q13 60 55 139q27 49 87 162.5t113 210.5t97 172q25 42 34 75t6 52t-18 35.5t-27.5 23t-35 15.5t-28.5 12q-35 18 -69.5 48t-63.5 73q-28 43 -42 90q-7 24 -8 52q0 25 6 52q12 57 56 111q56 69 133 93q49 15 94 14q25 0 49 -4q66 -14 121 -50q39 -24 47 -62 q2 -9 1 -19q1 -31 -17 -67q-24 -48 -57.5 -92t-85.5 -100q20 -23 45 -37q40 -23 96 -34.5t91 -16.5t61 -21q21 -13 21 -43q0 -7 -1 -15q-6 -42 -45 -117q-23 -43 -65 -114t-89 -161q-29 -53 -53 -113q-17 -42 -17 -59q0 -8 3 -12q10 -11 35.5 6t72.5 59q2 2 3 2.5t2.5 2 l2.5 2.5q58 48 386.5 360t388.5 375q22 22 31 -31q5 -27 5 -52q0 -30 -7 -59q-3 -13 -7 -18q-76 -78 -433 -436t-464 -459q-227 -217 -375 -217q-52 0 -86 19t-48 56q-7 19 -7 45q0 23 6 52z" />
<glyph unicode="s" horiz-adv-x="874" d="M-92 219q4 23 15 43.5t32.5 38.5t41 32t56.5 29t62 25t74 24t76.5 21.5t85.5 22.5t85 22q29 89 56 232q6 35 18 107q13 85 21 129t26.5 121.5t36.5 120t50 98.5t70 86.5t92.5 54t121.5 28.5q20 1 37 1q118 0 117 -63v-7q-8 -75 -150 -207l-23 -21q-51 -255 -82 -409 q-10 -63 -32 -146q403 180 780 670q9 7 15 7q15 0 18 -40q1 -11 1 -22q0 -43 -13 -76q-1 -5 -3 -8q-88 -131 -242.5 -275t-314.5 -254.5t-297 -177.5q-40 -104 -91.5 -181.5t-104 -123.5t-115.5 -74t-120.5 -37.5t-125.5 -9.5q-42 0 -81 5.5t-79.5 20.5t-68.5 38.5t-41 63.5 q-8 24 -8 51q0 19 4 40zM135 176q-1 -8 -1 -14q0 -31 31 -36q5 -1 9 -1q36 0 76 35q14 12 24 26q8 11 24 30.5t29 37t25 35.5q-104 -32 -158 -57.5t-59 -55.5z" />
<glyph unicode="t" horiz-adv-x="823" d="M7 173q13 61 56 138q13 24 87.5 163.5t184.5 344t204 379.5h-238l55 102h236l266 490h326q-78 -135 -266 -490l243 3q-20 -39 -55 -105h-244q-78 -147 -180.5 -339t-112.5 -210q-30 -53 -55 -113q-17 -42 -17 -60q0 -8 3 -11q10 -11 34 5t70 55l4.5 4.5t4.5 3.5t5 4 q12 10 231 190.5t414.5 345t229.5 199.5q21 22 30 -29q6 -30 5.5 -58t-5.5 -54q-3 -14 -7 -19q-27 -28 -469.5 -420.5t-528.5 -474.5q-230 -217 -375 -217q-52 0 -86 19q-35 19 -49 56q-8 20 -7 46q0 23 6 52z" />
<glyph unicode="u" horiz-adv-x="1372" d="M-1 227q6 100 64 207l496 924l326 2q-293 -545 -381 -711q-15 -27 -25.5 -53t-17.5 -58.5t10 -52.5t59 -20q55 0 172.5 99.5t234 235.5t177.5 242l168 316l326 2q-293 -545 -381 -711q-31 -53 -56 -113q-17 -41 -17 -60q0 -8 3 -11t8 -3q24 0 100 66q2 2 3.5 3t3.5 3t4 3 q58 49 387.5 362t386.5 373q21 22 30 -29q6 -30 6 -58t-6 -54q-3 -14 -7 -19q-66 -68 -428 -430.5t-469 -464.5q-230 -217 -375 -217q-52 0 -86 19q-35 19 -49 56q-8 20 -7 46q0 23 6 52q13 61 56 138q4 9 80 148q-178 -197 -345 -328t-261 -131q-99 0 -151 64 q-46 57 -46 143q0 10 1 20z" />
<glyph unicode="v" horiz-adv-x="1126" d="M99 270q4 80 38 168q47 122 140 352t162 399l69 169l323 2q-190 -492 -303 -776q-23 -52 -23 -96q0 -20 4 -36q14 -58 79 -57q81 0 164 95.5t182 273.5q-11 44 -11 93q0 27 3 53q9 78 44.5 159t81 146.5t101 107t104.5 41.5q34 0 65 -28q32 -29 42 -85q2 -11 1 -22 q0 -50 -36 -117l-151 -260q28 -19 62 -21h7l61 11q34 12 73.5 36.5t74 53t71.5 64.5t64.5 66.5t55.5 63.5t42.5 51.5t26.5 34.5q29 28 54 10t40 -56q9 -23 9 -36q0 -9 -4 -14q0 -1 -20.5 -27.5t-47.5 -59.5t-67.5 -80t-86.5 -91t-98.5 -89t-109.5 -78t-113 -54 q-55 -21 -114 -21h-3q-60 0 -113 25q-125 -185 -226 -310.5t-184 -198t-150 -102.5t-134 -30q-85 0 -144 36q-58 34 -84 94q-22 51 -22 119q0 10 1 21z" />
<glyph unicode="w" horiz-adv-x="1859" d="M2 227q6 100 64 207l495 924l326 2q-344 -627 -432 -793q-15 -28 -25.5 -54t-16.5 -59t11 -53t59 -20q40 0 125 69.5t177 169t181 211t140 195.5l135 332l324 2q-211 -501 -324 -785q-20 -51 -23 -93v-10q0 -35 18 -58q20 -27 64 -27q83 0 177.5 102.5t189.5 274.5 q-11 44 -11 93q0 27 3 53q9 78 45 159t81 146.5t100.5 107t103.5 41.5q25 0 50 -16.5t43 -46.5q16 -25 16 -65v-16q-4 -50 -36 -108l-151 -260q27 -19 61 -21h8l62 11q34 12 73 36.5t73.5 53t71.5 64.5t64.5 66.5t55.5 63.5t42.5 51.5t26.5 34.5q28 28 53 10q24 -18 40 -56 q9 -23 10 -37q0 -9 -4 -13q-1 -1 -20.5 -27.5t-47 -59.5t-67.5 -80t-86 -91t-98.5 -89t-109.5 -78t-113 -54q-55 -21 -114 -21h-3q-60 0 -113 25q-166 -245 -293 -388t-220 -198t-184 -55q-85 0 -143 36q-59 34 -84 94q-21 50 -21 116q1 12 1 24q4 80 38 168q3 8 29.5 75 t42.5 108q-128 -156 -263.5 -292.5t-269.5 -232.5t-212 -96q-99 0 -150 64q-46 57 -46 142q0 10 1 21z" />
<glyph unicode="x" horiz-adv-x="1105" d="M-354 0q5 4 907 731l35 629h323q-8 -174 -20 -356q387 311 428 352q7 7 14 7q19 0 44 -44q32 -59 34 -104q0 -12 -4 -17q-24 -26 -528 -446q-2 -24 -4.5 -59.5t-2.5 -41.5q0 -2 -4 -45t-4.5 -66.5t-1 -59t5.5 -53t17 -17.5q12 0 24 4.5t29.5 17.5t31 24.5t42 37 t49.5 43.5q67 60 394.5 370t379.5 365q21 23 31 -30q5 -30 5 -56q0 -29 -6 -56q-3 -11 -7 -16q-66 -68 -428 -430.5t-469 -464.5q-29 -28 -67.5 -64.5t-55.5 -52.5t-41 -38t-36 -30t-29 -17.5t-30.5 -12t-29.5 -2.5q-87 0 -120 74q-26 59 -26 172q0 31 2 65q1 8 3 34.5t4 58 t4 63.5q-450 -377 -547 -467z" />
<glyph unicode="y" horiz-adv-x="1382" d="M-158 -545q0 56 28.5 107t73 89.5t121 85.5t149 83.5t183 95.5t197.5 111l240 458q-185 -206 -359 -345.5t-270 -139.5q-99 0 -151 64q-46 57 -46 144v19q6 100 64 207l495 924l326 2q-293 -545 -381 -711q-11 -20 -20.5 -40.5t-16.5 -47.5t-5 -47.5t19.5 -34.5t51.5 -14 q56 0 179 106.5t242 248.5t173 245q4 8 6 8l149 287h324q-262 -501 -510 -963q375 315 954 875q22 21 31 -30q5 -29 5 -56q0 -29 -6 -56q-3 -13 -7 -18q-447 -473 -1104 -950q-240 -451 -283 -524q-38 -64 -62 -103t-56.5 -89t-57.5 -79t-58 -63t-63.5 -52.5t-68.5 -35.5 t-80 -24t-90 -7q-50 0 -103.5 17.5t-102 49.5t-79.5 85.5t-31 117.5zM80 -590q0 -88 80 -88q18 0 34.5 8t33.5 27t31 38.5t33.5 54.5t34 63t39 76t42.5 81l69 135q-202 -144 -299.5 -236.5t-97.5 -158.5z" />
<glyph unicode="z" horiz-adv-x="1099" d="M-375 -561q0 48 18 93t48 83t81 80t104 76.5t130.5 80t146.5 83t167 93t178 103.5q-68 96 -242 96q-43 0 -43 46q0 11 3 26q11 59 47 103q16 19 26 20q82 0 224.5 120t238.5 281q155 262 164 345v8q0 48 -44 49q-27 0 -93 -58t-195.5 -186t-204.5 -197q-11 -9 -28 -6.5 t-32 13.5t-27 27t-11.5 32.5t14.5 30.5l2 2q52 56 125.5 137.5t115 126.5t98 103t95.5 89t86.5 61.5t91.5 43t90 12.5q82 0 137.5 -42t75.5 -116q12 -48 12 -104q0 -32 -4 -66q-11 -95 -62 -209.5t-136 -226.5q-165 -216 -408 -352q52 -28 99 -72q225 160 467 399.5 t571 604.5q20 22 33 -32q9 -38 9 -74q0 -23 -4 -45q-3 -18 -9 -23q-156 -167 -261 -276t-234.5 -236t-250 -229t-241.5 -189q45 -74 57 -159q4 -30 4 -61q0 -58 -15 -122q-23 -98 -83 -193q-135 -218 -354.5 -333t-462.5 -115q-144 0 -229 69.5t-85 184.5zM-145 -586 q0 -42 28 -67t70 -25q106 0 221.5 87t222.5 243q138 197 138 346q-137 -88 -202.5 -131t-162 -108.5t-140 -102.5t-92 -84.5t-66 -84.5t-17.5 -73z" />
<glyph unicode="{" horiz-adv-x="995" d="M4.5 428.5q8.5 92.5 45 219.5t100.5 274q9 28 0 62t-24 64l-15 29q157 92 180 133q80 151 165 273.5t161 205t156.5 144.5t146.5 97t136.5 55.5t121.5 27t106 6.5l-84 -174q-43 0 -76.5 -4t-77.5 -18t-83 -39t-88 -69.5t-97.5 -106t-106.5 -151.5t-120 -204 q-33 -58 -71 -102t-60 -59l-21 -15q2 -9 4 -25.5t-1 -60.5t-19 -80q-72 -162 -111.5 -289.5t-47 -210.5t10.5 -137t54.5 -77t91.5 -23l-86 -174q-50 0 -95 13.5t-85.5 45.5t-68 80t-39 122.5t-3 167z" />
<glyph unicode="|" horiz-adv-x="1638" d="M717 -315v2334h151v-2334h-151z" />
<glyph unicode="}" horiz-adv-x="1605" d="M291 0l86 174q42 0 75 4t77 18t83 38.5t88 69t97.5 106t106.5 151.5t120 205q33 57 71 101t59 59l22 16q-2 9 -4 25t1 60t19 81q72 161 111.5 288.5t47 210.5t-10.5 137.5t-54.5 77.5t-91.5 23l86 174q50 0 95 -13.5t85.5 -45.5t68.5 -80.5t39.5 -122.5t2.5 -166.5 t-45.5 -219t-100.5 -273.5q-9 -22 1.5 -61t25.5 -67l14 -28q-157 -92 -182 -135q-80 -151 -165 -273.5t-161 -205t-156 -144t-146 -96t-136.5 -55.5t-122 -27t-106.5 -6z" />
<glyph unicode="~" horiz-adv-x="1431" d="M201 691q3 35 46 99q29 43 60 66q61 45 152 63.5t184.5 12.5t198 -18.5t192 -28t167 -16.5t122.5 16q17 7 17 -13q1 -38 -48 -89q-64 -68 -178 -105q-51 -17 -105 -12.5t-121 16.5t-132 30.5t-138 30t-139 15t-136 -14.5t-128 -59q-15 -11 -14 7z" />
<glyph unicode="&#xa3;" horiz-adv-x="1570" d="M2 281q16 120 127 189q156 98 440 48q3 6 12.5 23.5t14.5 27.5q7 16 31 66h-252l86 158h235q27 62 66 143q-131 31 -205 102q-27 27 -35 56.5t0.5 52t21 41.5t24.5 29l12 10q95 -114 239 -156l74 170q19 44 48.5 91t73.5 98t104 83.5t124 32.5q70 0 118.5 -28.5t70 -74.5 t23.5 -104.5t-15.5 -116.5t-53 -113t-83.5 -93q-98 -77 -254 -94q-13 -31 -56 -129h424l-84 -158h-409q-34 -76 -56 -121q-13 -24 -28 -57q51 -19 129.5 -50t134 -52.5t126.5 -47t126 -38t112 -19t105.5 2.5t87.5 32q0 -6 -1.5 -16t-8.5 -40t-17.5 -57t-32 -59.5 t-49.5 -56.5t-72.5 -40t-97.5 -16q-73 0 -153.5 29.5t-144 68.5t-163 97t-180.5 96q-59 -87 -122 -146t-126.5 -90t-122 -43t-126.5 -12q-120 0 -191 91q-64 84 -51 190zM146 220q5 -46 47 -59q11 -3 24 -3q55 0 114 46t140 156q-188 36 -279 -40q-52 -44 -46 -100z M1112 1069q74 17 127 66q50 51 69.5 105.5t9.5 87t-38 32.5q-20 0 -38.5 -19.5t-26 -34t-23.5 -52.5l-3.5 -7t-2.5 -6q-16 -40 -74 -172z" />
<glyph unicode="&#xa8;" horiz-adv-x="1492" d="M610 1597q-38 75 0 179q37 106 127 180t181 74t129.5 -74t1.5 -180q-37 -104 -128 -179t-182 -75t-129 75zM1241 1597q-38 75 0 179q37 106 126.5 180t180.5 74t129.5 -74t1.5 -180q-37 -104 -127.5 -179t-181.5 -75t-129 75z" />
<glyph unicode="&#xad;" horiz-adv-x="1695" d="M201 659l131 244h1274l-129 -244h-1276z" />
<glyph unicode="&#xb4;" horiz-adv-x="1083" d="M590 1628l381 400l117 -19q206 -42 198 -93q-2 -15 -24 -30q-405 -287 -508 -344q-23 -11 -45.5 -6.5t-44 19.5t-38 31t-26.5 29z" />
<glyph unicode="&#xc0;" horiz-adv-x="2158" d="M232 355q65 172 250 315q278 215 706 266q99 12 203 14l1028 1069h323q-643 -1204 -731 -1370q-30 -54 -54.5 -113.5t-12.5 -70.5q9 -11 33 5t64 50l4.5 4.5t4.5 4t5.5 4.5t4.5 4q58 48 386 360t388 375q22 22 31 -31q11 -59 -1 -111q-3 -13 -7 -18q-76 -78 -433 -436 t-464 -459q-227 -217 -375 -217q-52 0 -86 19t-48.5 56t-1.5 98t56 138q15 27 252 469h-299q-158 -172 -256 -286q-85 -99 -145.5 -163.5t-138 -133t-146 -107t-151.5 -63.5t-172 -25q-156 0 -216 104q-57 101 -1 249zM438 244q15 -17 47 -17q40 0 79 9t95.5 35t130.5 83.5 t160 143.5q22 23 114 117t159 163q-313 -21 -557 -192q-146 -102 -211 -215q-51 -90 -17 -127zM1612 952q113 0 239 4q226 422 336 631q-169 -185 -575 -635zM2079 2564q-83 58 105 106q87 23 186 35l380 -399q-2 -3 -5 -7t-14 -17t-21.5 -22.5t-27 -22.5t-30.5 -17.5 t-32.5 -7.5t-32.5 8q-103 57 -508 344z" />
<glyph unicode="&#xc1;" horiz-adv-x="2158" d="M232 355q65 172 250 315q278 215 706 266q99 12 203 14l1028 1069h323q-643 -1204 -731 -1370q-30 -54 -54.5 -113.5t-12.5 -70.5q9 -11 33 5t64 50l4.5 4.5t4.5 4t5.5 4.5t4.5 4q58 48 386 360t388 375q22 22 31 -31q11 -59 -1 -111q-3 -13 -7 -18q-76 -78 -433 -436 t-464 -459q-227 -217 -375 -217q-52 0 -86 19t-48.5 56t-1.5 98t56 138q15 27 252 469h-299q-158 -172 -256 -286q-85 -99 -145.5 -163.5t-138 -133t-146 -107t-151.5 -63.5t-172 -25q-156 0 -216 104q-57 101 -1 249zM438 244q15 -17 47 -17q40 0 79 9t95.5 35t130.5 83.5 t160 143.5q22 23 114 117t159 163q-313 -21 -557 -192q-146 -102 -211 -215q-51 -90 -17 -127zM1612 952q113 0 239 4q226 422 336 631q-169 -185 -575 -635zM2322 2306l381 399l117 -19q206 -41 198 -92q-2 -15 -24 -30q-405 -287 -508 -344q-23 -11 -45.5 -6.5t-44 19.5 t-38 31t-26.5 29z" />
<glyph unicode="&#xc2;" horiz-adv-x="2158" d="M232 355q65 172 250 315q278 215 706 266q99 12 203 14l1028 1069h323q-643 -1204 -731 -1370q-30 -54 -54.5 -113.5t-12.5 -70.5q9 -11 33 5t64 50l4.5 4.5t4.5 4t5.5 4.5t4.5 4q58 48 386 360t388 375q22 22 31 -31q11 -59 -1 -111q-3 -13 -7 -18q-76 -78 -433 -436 t-464 -459q-227 -217 -375 -217q-52 0 -86 19t-48.5 56t-1.5 98t56 138q15 27 252 469h-299q-158 -172 -256 -286q-85 -99 -145.5 -163.5t-138 -133t-146 -107t-151.5 -63.5t-172 -25q-156 0 -216 104q-57 101 -1 249zM438 244q15 -17 47 -17q40 0 79 9t95.5 35t130.5 83.5 t160 143.5q22 23 114 117t159 163q-313 -21 -557 -192q-146 -102 -211 -215q-51 -90 -17 -127zM1612 952q113 0 239 4q226 422 336 631q-169 -185 -575 -635zM2154 2306l553 389q4 3 61 -94.5t112 -196.5l55 -98q-2 -2 -5 -4.5t-13.5 -11t-21.5 -16t-26 -17.5t-29 -18 t-29.5 -15t-29 -10t-26 -2t-21.5 8q-37 27 -162 156q-199 -112 -291 -156q-28 -11 -49 -6.5t-35.5 19.5t-24 31t-14.5 29z" />
<glyph unicode="&#xc3;" horiz-adv-x="2158" d="M232 355q65 172 250 315q278 215 706 266q99 12 203 14l1028 1069h323q-643 -1204 -731 -1370q-30 -54 -54.5 -113.5t-12.5 -70.5q9 -11 33 5t64 50l4.5 4.5t4.5 4t5.5 4.5t4.5 4q58 48 386 360t388 375q22 22 31 -31q11 -59 -1 -111q-3 -13 -7 -18q-76 -78 -433 -436 t-464 -459q-227 -217 -375 -217q-52 0 -86 19t-48.5 56t-1.5 98t56 138q15 27 252 469h-299q-158 -172 -256 -286q-85 -99 -145.5 -163.5t-138 -133t-146 -107t-151.5 -63.5t-172 -25q-156 0 -216 104q-57 101 -1 249zM438 244q15 -17 47 -17q40 0 79 9t95.5 35t130.5 83.5 t160 143.5q22 23 114 117t159 163q-313 -21 -557 -192q-146 -102 -211 -215q-51 -90 -17 -127zM1612 952q113 0 239 4q226 422 336 631q-169 -185 -575 -635zM2034 2465q3 35 46 98q30 42 60 65q61 45 140 63.5t154.5 12.5t159.5 -18t154 -27.5t137.5 -16.5t110.5 16 q17 6 17 -15q1 -38 -49 -90q-65 -66 -177 -102q-40 -12 -84.5 -12.5t-85 10.5t-87 24.5t-89.5 28.5t-92.5 22.5t-96 7t-100 -19t-104.5 -54.5q-15 -11 -14 7z" />
<glyph unicode="&#xc4;" horiz-adv-x="2158" d="M232 355q65 172 250 315q278 215 706 266q99 12 203 14l1028 1069h323q-643 -1204 -731 -1370q-30 -54 -54.5 -113.5t-12.5 -70.5q9 -11 33 5t64 50l4.5 4.5t4.5 4t5.5 4.5t4.5 4q58 48 386 360t388 375q22 22 31 -31q11 -59 -1 -111q-3 -13 -7 -18q-76 -78 -433 -436 t-464 -459q-227 -217 -375 -217q-52 0 -86 19t-48.5 56t-1.5 98t56 138q15 27 252 469h-299q-158 -172 -256 -286q-85 -99 -145.5 -163.5t-138 -133t-146 -107t-151.5 -63.5t-172 -25q-156 0 -216 104q-57 101 -1 249zM438 244q15 -17 47 -17q40 0 79 9t95.5 35t130.5 83.5 t160 143.5q22 23 114 117t159 163q-313 -21 -557 -192q-146 -102 -211 -215q-51 -90 -17 -127zM1612 952q113 0 239 4q226 422 336 631q-169 -185 -575 -635zM2038 2275q-38 75 0 179q37 106 126.5 179.5t180.5 73.5t129.5 -73.5t1.5 -179.5q-37 -104 -127.5 -179 t-181.5 -75t-129 75zM2669 2275q-38 75 0 179q37 106 126.5 179.5t180.5 73.5t129.5 -73.5t1.5 -179.5q-37 -104 -127.5 -179t-181.5 -75t-129 75z" />
<glyph unicode="&#xc6;" horiz-adv-x="3411" d="M232 355q65 172 250 315q278 215 706 266q99 12 203 14l1028 1069h323q-643 -1204 -731 -1370q-30 -54 -54.5 -113.5t-12.5 -70.5q9 -11 33 5t64 50l4.5 4.5t4.5 4t5.5 4.5t4.5 4q58 48 386 360t388 375q22 22 31 -31q11 -59 -1 -111q-3 -13 -7 -18q-76 -78 -433 -436 t-464 -459q-227 -217 -375 -217q-52 0 -86 19t-48.5 56t-1.5 98t56 138q15 27 252 469h-299q-158 -172 -256 -286q-85 -99 -145.5 -163.5t-138 -133t-146 -107t-151.5 -63.5t-172 -25q-156 0 -216 104q-57 101 -1 249zM438 244q15 -17 47 -17q40 0 79 9t95.5 35t130.5 83.5 t160 143.5q22 23 114 117t159 163q-313 -21 -557 -192q-146 -102 -211 -215q-51 -90 -17 -127zM1612 952q113 0 239 4q226 422 336 631q-169 -185 -575 -635zM2040 443.5q-8 90.5 21 189t96 190.5q256 353 698 439q-119 97 -126.5 257t114.5 336q56 77 128.5 136.5t138 92.5 t134.5 54.5t115.5 28t83.5 6.5q121 0 210.5 -37t135.5 -98t54 -142t-23 -166.5t-106.5 -175t-186.5 -163.5q-19 -12 -52.5 -15.5t-68.5 3.5t-67 28t-46 53q153 103 258 259q91 134 87 214q-4 58 -62 58q-111 0 -247.5 -77.5t-223.5 -211.5q-78 -121 -72 -246t94 -168 q18 2 51 2q26 0 45 -43t13 -86t-41 -43q-80 0 -170.5 -25.5t-182 -74.5t-172 -133.5t-128.5 -190.5q-43 -107 -27 -188.5t85 -129.5t171 -48q92 0 191.5 31t189 84t175 117t159 136.5t129.5 136t98 121.5q28 41 62 -3q33 -41 36 -104q1 -35 -12 -56q-62 -99 -151 -203.5 t-208 -210.5t-246 -189.5t-273 -135.5t-281 -52q-133 0 -243.5 35t-185 95t-119 141.5t-52.5 172z" />
<glyph unicode="&#xc8;" horiz-adv-x="1548" d="M237 443.5q-8 90.5 21 189t96 190.5q256 353 699 439q-120 97 -127.5 256.5t114.5 336.5q56 77 128.5 136.5t138 92.5t134.5 54.5t115.5 28t83.5 6.5q121 0 210.5 -37t135.5 -98t54 -142t-23 -166.5t-106.5 -175t-186.5 -163.5q-19 -12 -52.5 -15.5t-68.5 3.5t-66.5 28 t-45.5 53q153 103 258 259q91 134 87 214q-4 58 -62 58q-111 0 -247.5 -77.5t-223.5 -211.5q-78 -121 -72 -246t94 -168q18 2 51 2q26 0 45 -43t13 -86t-41 -43q-80 0 -170.5 -25.5t-182.5 -74.5t-172.5 -133.5t-128.5 -190.5q-43 -107 -26.5 -188.5t85.5 -129.5t171 -48 q92 0 191.5 31t189 84t175 117t159 136.5t129.5 136t98 121.5q28 41 62 -3q33 -41 36 -104q1 -35 -12 -56q-62 -99 -151 -203.5t-208 -210.5t-246 -189.5t-273 -135.5t-281 -52q-133 0 -243.5 35t-185 95t-119.5 141.5t-53 172zM1239 2685q-83 58 105 106q87 23 186 35 l381 -399q-2 -3 -5.5 -7t-14.5 -17t-21.5 -22.5t-27 -22.5t-30.5 -17.5t-32.5 -7.5t-32.5 8q-103 57 -508 344z" />
<glyph unicode="&#xc9;" horiz-adv-x="1548" d="M237 443.5q-8 90.5 21 189t96 190.5q256 353 699 439q-120 97 -127.5 256.5t114.5 336.5q56 77 128.5 136.5t138 92.5t134.5 54.5t115.5 28t83.5 6.5q121 0 210.5 -37t135.5 -98t54 -142t-23 -166.5t-106.5 -175t-186.5 -163.5q-19 -12 -52.5 -15.5t-68.5 3.5t-66.5 28 t-45.5 53q153 103 258 259q91 134 87 214q-4 58 -62 58q-111 0 -247.5 -77.5t-223.5 -211.5q-78 -121 -72 -246t94 -168q18 2 51 2q26 0 45 -43t13 -86t-41 -43q-80 0 -170.5 -25.5t-182.5 -74.5t-172.5 -133.5t-128.5 -190.5q-43 -107 -26.5 -188.5t85.5 -129.5t171 -48 q92 0 191.5 31t189 84t175 117t159 136.5t129.5 136t98 121.5q28 41 62 -3q33 -41 36 -104q1 -35 -12 -56q-62 -99 -151 -203.5t-208 -210.5t-246 -189.5t-273 -135.5t-281 -52q-133 0 -243.5 35t-185 95t-119.5 141.5t-53 172zM1415 2421l381 399l117 -19q206 -41 198 -92 q-2 -15 -24 -30q-405 -287 -508 -344q-23 -11 -45.5 -6.5t-44 19.5t-38 31t-26.5 29z" />
<glyph unicode="&#xca;" horiz-adv-x="1548" d="M237 443.5q-8 90.5 21 189t96 190.5q256 353 699 439q-120 97 -127.5 256.5t114.5 336.5q56 77 128.5 136.5t138 92.5t134.5 54.5t115.5 28t83.5 6.5q121 0 210.5 -37t135.5 -98t54 -142t-23 -166.5t-106.5 -175t-186.5 -163.5q-19 -12 -52.5 -15.5t-68.5 3.5t-66.5 28 t-45.5 53q153 103 258 259q91 134 87 214q-4 58 -62 58q-111 0 -247.5 -77.5t-223.5 -211.5q-78 -121 -72 -246t94 -168q18 2 51 2q26 0 45 -43t13 -86t-41 -43q-80 0 -170.5 -25.5t-182.5 -74.5t-172.5 -133.5t-128.5 -190.5q-43 -107 -26.5 -188.5t85.5 -129.5t171 -48 q92 0 191.5 31t189 84t175 117t159 136.5t129.5 136t98 121.5q28 41 62 -3q33 -41 36 -104q1 -35 -12 -56q-62 -99 -151 -203.5t-208 -210.5t-246 -189.5t-273 -135.5t-281 -52q-133 0 -243.5 35t-185 95t-119.5 141.5t-53 172zM1292 2417l553 389q4 3 61 -94.5t112 -195.5 l55 -99q-2 -2 -5 -4.5t-13.5 -11t-21.5 -16t-26 -17.5t-29 -18t-29.5 -15t-29 -10t-26 -2t-21.5 8q-40 29 -162 155q-188 -106 -291 -155q-28 -11 -49 -6.5t-35.5 19.5t-24 31t-14.5 29z" />
<glyph unicode="&#xcb;" horiz-adv-x="1548" d="M237 443.5q-8 90.5 21 189t96 190.5q256 353 699 439q-120 97 -127.5 256.5t114.5 336.5q56 77 128.5 136.5t138 92.5t134.5 54.5t115.5 28t83.5 6.5q121 0 210.5 -37t135.5 -98t54 -142t-23 -166.5t-106.5 -175t-186.5 -163.5q-19 -12 -52.5 -15.5t-68.5 3.5t-66.5 28 t-45.5 53q153 103 258 259q91 134 87 214q-4 58 -62 58q-111 0 -247.5 -77.5t-223.5 -211.5q-78 -121 -72 -246t94 -168q18 2 51 2q26 0 45 -43t13 -86t-41 -43q-80 0 -170.5 -25.5t-182.5 -74.5t-172.5 -133.5t-128.5 -190.5q-43 -107 -26.5 -188.5t85.5 -129.5t171 -48 q92 0 191.5 31t189 84t175 117t159 136.5t129.5 136t98 121.5q28 41 62 -3q33 -41 36 -104q1 -35 -12 -56q-62 -99 -151 -203.5t-208 -210.5t-246 -189.5t-273 -135.5t-281 -52q-133 0 -243.5 35t-185 95t-119.5 141.5t-53 172zM1198 2356q-38 75 0 179q37 106 126.5 180 t180.5 74t129.5 -74t1.5 -180q-37 -104 -127.5 -179t-181.5 -75t-129 75zM1829 2356q-38 75 0 179q37 106 126.5 180t180.5 74t129.5 -74t1.5 -180q-37 -104 -127.5 -179t-181.5 -75t-129 75z" />
<glyph unicode="&#xcc;" horiz-adv-x="1454" d="M234 354q65 172 250 315q277 216 704 267q45 82 141 300.5t144 309.5q-174 -14 -333 33t-243 137q-36 38 -43.5 80t7 74.5t35 59t38.5 40.5l18 15q61 -81 141.5 -137t161.5 -79.5t167.5 -29t158.5 13.5l8 16q9 16 29.5 58.5t35 70t40 70.5t48 72t56 62.5t67 54t77 34 t90.5 13.5q215 0 207 -106q-8 -112 -246 -312q-57 -48 -121 -96q-66 -129 -240.5 -499t-224.5 -458q-102 -180 -205 -312.5t-194 -212t-190 -127.5t-184 -64.5t-183 -16.5q-156 0 -216 104q-57 101 -1 250zM441 336q-33 -80 12 -102q14 -7 34 -7q51 0 114 27t140 84.5 t168.5 166t180.5 255.5q-277 -51 -480 -219q-128 -105 -169 -205zM1540 2707q-83 58 107 107q87 23 184 35l381 -400q-2 -3 -5.5 -7t-14.5 -17t-21.5 -22.5t-27 -22.5t-30.5 -17.5t-32.5 -7.5t-32.5 8q-103 57 -508 344z" />
<glyph unicode="&#xcd;" horiz-adv-x="1454" d="M234 354q65 172 250 315q277 216 704 267q45 82 141 300.5t144 309.5q-174 -14 -333 33t-243 137q-36 38 -43.5 80t7 74.5t35 59t38.5 40.5l18 15q61 -81 141.5 -137t161.5 -79.5t167.5 -29t158.5 13.5l8 16q9 16 29.5 58.5t35 70t40 70.5t48 72t56 62.5t67 54t77 34 t90.5 13.5q215 0 207 -106q-8 -112 -246 -312q-57 -48 -121 -96q-66 -129 -240.5 -499t-224.5 -458q-102 -180 -205 -312.5t-194 -212t-190 -127.5t-184 -64.5t-183 -16.5q-156 0 -216 104q-57 101 -1 250zM441 336q-33 -80 12 -102q14 -7 34 -7q51 0 114 27t140 84.5 t168.5 166t180.5 255.5q-277 -51 -480 -219q-128 -105 -169 -205zM1665 2437l381 399l117 -19q206 -41 198 -92q-2 -15 -24 -30q-405 -287 -508 -344q-23 -11 -45.5 -6.5t-44 19.5t-38 31t-26.5 29z" />
<glyph unicode="&#xce;" horiz-adv-x="1454" d="M234 354q65 172 250 315q277 216 704 267q45 82 141 300.5t144 309.5q-174 -14 -333 33t-243 137q-36 38 -43.5 80t7 74.5t35 59t38.5 40.5l18 15q61 -81 141.5 -137t161.5 -79.5t167.5 -29t158.5 13.5l8 16q9 16 29.5 58.5t35 70t40 70.5t48 72t56 62.5t67 54t77 34 t90.5 13.5q215 0 207 -106q-8 -112 -246 -312q-57 -48 -121 -96q-66 -129 -240.5 -499t-224.5 -458q-102 -180 -205 -312.5t-194 -212t-190 -127.5t-184 -64.5t-183 -16.5q-156 0 -216 104q-57 101 -1 250zM441 336q-33 -80 12 -102q14 -7 34 -7q51 0 114 27t140 84.5 t168.5 166t180.5 255.5q-277 -51 -480 -219q-128 -105 -169 -205zM1659 2470l553 389q4 3 61 -94.5t111 -196.5l55 -98q-2 -2 -5 -4.5t-13.5 -11t-21.5 -16t-26 -17.5t-29 -18t-29.5 -15t-29 -10t-26 -2t-21.5 8q-13 10 -26.5 21.5t-31.5 29.5l-29.5 29.5t-37 37.5t-36.5 38 q-199 -112 -291 -156q-28 -11 -49 -6.5t-35.5 19.5t-24 31t-13.5 29z" />
<glyph unicode="&#xcf;" horiz-adv-x="1454" d="M234 354q65 172 250 315q277 216 704 267q45 82 141 300.5t144 309.5q-174 -14 -333 33t-243 137q-36 38 -43.5 80t7 74.5t35 59t38.5 40.5l18 15q61 -81 141.5 -137t161.5 -79.5t167.5 -29t158.5 13.5l8 16q9 16 29.5 58.5t35 70t40 70.5t48 72t56 62.5t67 54t77 34 t90.5 13.5q215 0 207 -106q-8 -112 -246 -312q-57 -48 -121 -96q-66 -129 -240.5 -499t-224.5 -458q-102 -180 -205 -312.5t-194 -212t-190 -127.5t-184 -64.5t-183 -16.5q-156 0 -216 104q-57 101 -1 250zM441 336q-33 -80 12 -102q14 -7 34 -7q51 0 114 27t140 84.5 t168.5 166t180.5 255.5q-277 -51 -480 -219q-128 -105 -169 -205zM1554 2457q-38 75 0 179q37 106 127 180t181 74t129.5 -74t1.5 -180q-37 -104 -128 -179t-182 -75t-129 75zM2185 2457q-38 75 0 179q37 106 126.5 180t180.5 74t129.5 -74t1.5 -180q-37 -104 -127.5 -179 t-181.5 -75t-129 75z" />
<glyph unicode="&#xd1;" horiz-adv-x="2355" d="M227 357q58 172 236 315q269 214 694 264l578 1083h385q-23 -44 -62 -116q212 157 432 157q104 0 173.5 -36.5t99.5 -104.5t12.5 -171t-84.5 -230q-224 -428 -463 -869q-31 -58 -54.5 -115.5t-12.5 -68.5q10 -11 35.5 6t72.5 59q2 2 3 2.5t2.5 2l2.5 2.5q58 48 388 360.5 t389 374.5q21 22 30 -29q11 -60 -2 -111q-3 -15 -8 -20q-46 -47 -422 -415.5t-493 -479.5q-230 -217 -377 -217q-51 0 -84.5 19t-48 56t-1.5 98t56 138q22 40 122.5 235.5t249 482.5t251.5 484q75 139 70 234.5t-93 95.5q-145 0 -264 -107.5t-240 -322.5 q-252 -482 -362 -680q-101 -179 -206.5 -311.5t-200 -211.5t-196.5 -127t-188.5 -64.5t-185.5 -16.5q-157 0 -222 106q-61 101 -12 249zM442 338q-26 -80 21 -104q14 -7 35 -7q236 0 561 535q-274 -52 -463 -218q-120 -105 -154 -206zM1838 2464q2 34 45 97q30 43 61 67 q61 45 140 63.5t154.5 12.5t159.5 -18t154 -27.5t137.5 -16.5t110.5 16q17 6 17 -15q1 -38 -49 -90q-65 -66 -177 -102q-40 -12 -84.5 -12.5t-85.5 10.5t-87 24.5t-89.5 28.5t-93 22.5t-96 7t-100 -19t-104.5 -54.5q-15 -10 -13 6z" />
<glyph unicode="&#xd2;" horiz-adv-x="1759" d="M182.5 453q-15.5 110 2.5 235t86 277.5t182 312.5q120 169 257.5 303t259 214t244 132.5t214 72t167.5 19.5q139 0 199.5 -85t44.5 -218q87 -41 84 -137q-3 -184 -46.5 -373.5t-118.5 -364.5t-185 -328.5t-239 -267t-287.5 -179.5t-323.5 -66q-101 0 -192 30t-162.5 89.5 t-121 141.5t-65 192zM548 379q8 -102 64 -162.5t156 -60.5q114 0 241 101.5t236.5 263t200 362.5t141.5 401q-62 -43 -69 -47q-46 -26 -87.5 -28.5t-67 12.5t-44.5 34t-27 35l-8 17q153 104 259 259q91 134 86 214q-6 56 -62 57q-62 0 -149 -42t-188.5 -121.5t-216.5 -212.5 t-216 -298q-85 -137 -145 -280.5t-86 -272.5t-18 -231zM1157 2564q-83 58 105 106q87 23 186 35l381 -399q-2 -3 -5.5 -7t-14.5 -17t-21.5 -22.5t-27 -22.5t-30.5 -17.5t-32.5 -7.5t-32.5 8q-103 57 -508 344z" />
<glyph unicode="&#xd3;" horiz-adv-x="1759" d="M182.5 453q-15.5 110 2.5 235t86 277.5t182 312.5q120 169 257.5 303t259 214t244 132.5t214 72t167.5 19.5q139 0 199.5 -85t44.5 -218q87 -41 84 -137q-3 -184 -46.5 -373.5t-118.5 -364.5t-185 -328.5t-239 -267t-287.5 -179.5t-323.5 -66q-101 0 -192 30t-162.5 89.5 t-121 141.5t-65 192zM548 379q8 -102 64 -162.5t156 -60.5q114 0 241 101.5t236.5 263t200 362.5t141.5 401q-62 -43 -69 -47q-46 -26 -87.5 -28.5t-67 12.5t-44.5 34t-27 35l-8 17q153 104 259 259q91 134 86 214q-6 56 -62 57q-62 0 -149 -42t-188.5 -121.5t-216.5 -212.5 t-216 -298q-85 -137 -145 -280.5t-86 -272.5t-18 -231zM1366 2306l381 399l117 -19q206 -41 198 -92q-2 -15 -24 -30q-405 -287 -508 -344q-23 -11 -45.5 -6.5t-44 19.5t-38 31t-26.5 29z" />
<glyph unicode="&#xd4;" horiz-adv-x="1759" d="M182.5 453q-15.5 110 2.5 235t86 277.5t182 312.5q120 169 257.5 303t259 214t244 132.5t214 72t167.5 19.5q139 0 199.5 -85t44.5 -218q87 -41 84 -137q-3 -184 -46.5 -373.5t-118.5 -364.5t-185 -328.5t-239 -267t-287.5 -179.5t-323.5 -66q-101 0 -192 30t-162.5 89.5 t-121 141.5t-65 192zM548 379q8 -102 64 -162.5t156 -60.5q114 0 241 101.5t236.5 263t200 362.5t141.5 401q-62 -43 -69 -47q-46 -26 -87.5 -28.5t-67 12.5t-44.5 34t-27 35l-8 17q153 104 259 259q91 134 86 214q-6 56 -62 57q-62 0 -149 -42t-188.5 -121.5t-216.5 -212.5 t-216 -298q-85 -137 -145 -280.5t-86 -272.5t-18 -231zM1276 2306l553 389q4 3 61 -94.5t112 -196.5l54 -98q-2 -2 -5 -4.5t-13.5 -11t-21.5 -16t-26 -17.5t-29 -18t-29.5 -15t-29 -10t-26 -2t-21.5 8q-13 10 -26.5 21.5t-31.5 29.5l-29.5 29.5t-37 37.5t-36.5 38 q-199 -112 -291 -156q-28 -11 -49 -6.5t-35.5 19.5t-24 31t-14.5 29z" />
<glyph unicode="&#xd5;" horiz-adv-x="1759" d="M182.5 453q-15.5 110 2.5 235t86 277.5t182 312.5q120 169 257.5 303t259 214t244 132.5t214 72t167.5 19.5q139 0 199.5 -85t44.5 -218q87 -41 84 -137q-3 -184 -46.5 -373.5t-118.5 -364.5t-185 -328.5t-239 -267t-287.5 -179.5t-323.5 -66q-101 0 -192 30t-162.5 89.5 t-121 141.5t-65 192zM548 379q8 -102 64 -162.5t156 -60.5q114 0 241 101.5t236.5 263t200 362.5t141.5 401q-62 -43 -69 -47q-46 -26 -87.5 -28.5t-67 12.5t-44.5 34t-27 35l-8 17q153 104 259 259q91 134 86 214q-6 56 -62 57q-62 0 -149 -42t-188.5 -121.5t-216.5 -212.5 t-216 -298q-85 -137 -145 -280.5t-86 -272.5t-18 -231zM1192 2465q3 35 46 98q29 42 60 65q61 45 140 63.5t154.5 12.5t159.5 -18t154 -27.5t137.5 -16.5t110.5 16q17 6 17 -15q1 -38 -48 -90q-64 -66 -177 -102q-40 -12 -84.5 -12.5t-85.5 10.5t-87 24.5t-89.5 28.5 t-93 22.5t-96 7t-100 -19t-104.5 -54.5q-15 -11 -14 7z" />
<glyph unicode="&#xd6;" horiz-adv-x="1759" d="M182.5 453q-15.5 110 2.5 235t86 277.5t182 312.5q120 169 257.5 303t259 214t244 132.5t214 72t167.5 19.5q139 0 199.5 -85t44.5 -218q87 -41 84 -137q-3 -184 -46.5 -373.5t-118.5 -364.5t-185 -328.5t-239 -267t-287.5 -179.5t-323.5 -66q-101 0 -192 30t-162.5 89.5 t-121 141.5t-65 192zM548 379q8 -102 64 -162.5t156 -60.5q114 0 241 101.5t236.5 263t200 362.5t141.5 401q-62 -43 -69 -47q-46 -26 -87.5 -28.5t-67 12.5t-44.5 34t-27 35l-8 17q153 104 259 259q91 134 86 214q-6 56 -62 57q-62 0 -149 -42t-188.5 -121.5t-216.5 -212.5 t-216 -298q-85 -137 -145 -280.5t-86 -272.5t-18 -231zM1165 2275q-38 75 0 179q37 105 127 179t181 74t129.5 -73.5t1.5 -179.5q-37 -104 -128 -179t-182 -75t-129 75zM1796 2275q-38 75 0 179q37 106 126.5 179.5t180.5 73.5t129.5 -73.5t1.5 -179.5q-37 -104 -127.5 -179 t-181.5 -75t-129 75z" />
<glyph unicode="&#xd9;" horiz-adv-x="1968" d="M404 144q-52 142 81 401q487 922 521 983q38 69 63 119.5t42.5 99.5t11.5 74.5t-36 25.5q-32 0 -95 -45.5t-133.5 -118t-139 -178t-105.5 -211.5q-49 16 -78.5 33t-44.5 33t-16 38t5 41t20 50q15 33 58 94.5t120.5 146t167.5 157t209 124t235 51.5q42 0 80.5 -11.5 t69 -37t46.5 -61t9 -88t-41 -113.5q-323 -597 -606 -1137q-174 -328 -47 -329q71 0 167 61.5t193.5 157t210.5 230t208 263t195.5 274.5t164 244.5t122.5 192.5l166 311h326q-643 -1204 -731 -1370q-31 -54 -56 -113.5t-14 -70.5q15 -17 108 63q2 2 3.5 3t3.5 3t4 3 q58 49 387.5 362t386.5 373q21 22 30 -29q11 -60 0 -112q-3 -14 -7 -19q-66 -68 -428 -430.5t-469 -464.5q-230 -217 -375 -217q-52 0 -86 19t-48.5 56t-1.5 98t56 138q6 11 63 118.5t107 199.5q-480 -627 -821 -627q-210 0 -262 142zM1382 2564q-83 58 105 106 q87 23 186 35l381 -399q-2 -3 -5.5 -7t-14.5 -17t-21.5 -22.5t-27 -22.5t-30.5 -17.5t-32.5 -7.5t-32.5 8q-103 57 -508 344z" />
<glyph unicode="&#xda;" horiz-adv-x="1968" d="M404 144q-52 142 81 401q487 922 521 983q38 69 63 119.5t42.5 99.5t11.5 74.5t-36 25.5q-32 0 -95 -45.5t-133.5 -118t-139 -178t-105.5 -211.5q-49 16 -78.5 33t-44.5 33t-16 38t5 41t20 50q15 33 58 94.5t120.5 146t167.5 157t209 124t235 51.5q42 0 80.5 -11.5 t69 -37t46.5 -61t9 -88t-41 -113.5q-323 -597 -606 -1137q-174 -328 -47 -329q71 0 167 61.5t193.5 157t210.5 230t208 263t195.5 274.5t164 244.5t122.5 192.5l166 311h326q-643 -1204 -731 -1370q-31 -54 -56 -113.5t-14 -70.5q15 -17 108 63q2 2 3.5 3t3.5 3t4 3 q58 49 387.5 362t386.5 373q21 22 30 -29q11 -60 0 -112q-3 -14 -7 -19q-66 -68 -428 -430.5t-469 -464.5q-230 -217 -375 -217q-52 0 -86 19t-48.5 56t-1.5 98t56 138q6 11 63 118.5t107 199.5q-480 -627 -821 -627q-210 0 -262 142zM1675 2306l381 399l117 -19 q206 -41 198 -92q-2 -15 -24 -30q-405 -287 -508 -344q-23 -11 -45.5 -6.5t-44 19.5t-38 31t-26.5 29z" />
<glyph unicode="&#xdb;" horiz-adv-x="1968" d="M404 144q-52 142 81 401q487 922 521 983q38 69 63 119.5t42.5 99.5t11.5 74.5t-36 25.5q-32 0 -95 -45.5t-133.5 -118t-139 -178t-105.5 -211.5q-49 16 -78.5 33t-44.5 33t-16 38t5 41t20 50q15 33 58 94.5t120.5 146t167.5 157t209 124t235 51.5q42 0 80.5 -11.5 t69 -37t46.5 -61t9 -88t-41 -113.5q-323 -597 -606 -1137q-174 -328 -47 -329q71 0 167 61.5t193.5 157t210.5 230t208 263t195.5 274.5t164 244.5t122.5 192.5l166 311h326q-643 -1204 -731 -1370q-31 -54 -56 -113.5t-14 -70.5q15 -17 108 63q2 2 3.5 3t3.5 3t4 3 q58 49 387.5 362t386.5 373q21 22 30 -29q11 -60 0 -112q-3 -14 -7 -19q-66 -68 -428 -430.5t-469 -464.5q-230 -217 -375 -217q-52 0 -86 19t-48.5 56t-1.5 98t56 138q6 11 63 118.5t107 199.5q-480 -627 -821 -627q-210 0 -262 142zM1540 2306l553 389q4 3 61 -94.5 t112 -196.5l54 -98q-2 -2 -5 -4.5t-13.5 -11t-21 -16t-25.5 -17.5t-29 -18t-29.5 -15t-29 -10t-26 -2t-21.5 8q-37 27 -162 156q-199 -112 -291 -156q-28 -11 -49 -6.5t-35.5 19.5t-24 31t-14.5 29z" />
<glyph unicode="&#xdc;" horiz-adv-x="1968" d="M404 144q-52 142 81 401q487 922 521 983q38 69 63 119.5t42.5 99.5t11.5 74.5t-36 25.5q-32 0 -95 -45.5t-133.5 -118t-139 -178t-105.5 -211.5q-49 16 -78.5 33t-44.5 33t-16 38t5 41t20 50q15 33 58 94.5t120.5 146t167.5 157t209 124t235 51.5q42 0 80.5 -11.5 t69 -37t46.5 -61t9 -88t-41 -113.5q-323 -597 -606 -1137q-174 -328 -47 -329q71 0 167 61.5t193.5 157t210.5 230t208 263t195.5 274.5t164 244.5t122.5 192.5l166 311h326q-643 -1204 -731 -1370q-31 -54 -56 -113.5t-14 -70.5q15 -17 108 63q2 2 3.5 3t3.5 3t4 3 q58 49 387.5 362t386.5 373q21 22 30 -29q11 -60 0 -112q-3 -14 -7 -19q-66 -68 -428 -430.5t-469 -464.5q-230 -217 -375 -217q-52 0 -86 19t-48.5 56t-1.5 98t56 138q6 11 63 118.5t107 199.5q-480 -627 -821 -627q-210 0 -262 142zM1413 2275q-38 75 0 179 q37 106 126.5 179.5t180.5 73.5t129.5 -73.5t1.5 -179.5q-37 -104 -127.5 -179t-181.5 -75t-129 75zM2044 2275q-38 75 0 179q37 106 126.5 179.5t180.5 73.5t129.5 -73.5t1.5 -179.5q-37 -104 -127.5 -179t-181.5 -75t-129 75z" />
<glyph unicode="&#xdd;" horiz-adv-x="1925" d="M416 -195q65 173 250 316q278 216 704 266q49 90 254 467q-361 -387 -680 -387q-211 0 -262.5 142t82.5 403q82 156 137.5 258t96 172.5t49.5 85.5q38 69 63 119.5t42.5 99.5t11.5 74.5t-36 25.5q-32 0 -95 -45.5t-133.5 -118t-139 -178t-105.5 -211.5q-49 16 -78.5 33 t-44.5 33t-16 38t5 41t20 50q15 33 58 94.5t120.5 146t167.5 157t209 124t235 51.5q42 0 80.5 -11.5t69 -37t46.5 -61t9 -88t-41 -113.5q-14 -26 -58.5 -101.5t-123.5 -217.5t-189 -351q-159 -308 -61 -328l16 -1q61 0 133.5 31.5t143.5 83t149.5 125t147.5 148.5 t141.5 163.5t127 160t108.5 146.5l219 409h344q-881 -1655 -983 -1835q-101 -179 -206.5 -312t-200 -212.5t-196.5 -127.5t-188.5 -64.5t-185.5 -16.5q-156 0 -216 105q-57 101 -1 249zM624 -213q-33 -80 12 -102q14 -7 34 -7q40 0 87 15.5t108 54.5t124 98t137 153t146 212 q-277 -51 -480 -219q-127 -105 -168 -205zM1679 2306l381 399l117 -19q206 -41 198 -92q-2 -15 -24 -30q-405 -287 -508 -344q-23 -11 -45.5 -6.5t-44 19.5t-38 31t-26.5 29z" />
<glyph unicode="&#xe0;" d="M1 307.5q4 92.5 50 213t131 249.5t170.5 231t161 168t149 110t135 62.5t117.5 18.5q84 0 146 -67t82 -163l121 228l325 2q-293 -545 -381 -711q-30 -53 -55 -113t-14 -71q16 -16 99 56q13 11 19 16q58 48 386.5 360t388.5 375q22 22 31 -31q10 -59 -2 -111q-3 -13 -7 -18 q-66 -68 -428 -430.5t-469 -464.5q-227 -217 -375 -217q-91 0 -124 53.5t4 167.5q-221 -221 -408 -221q-83 0 -142.5 37t-87 107.5t-23.5 163zM415 418q2 -91 66 -94q79 0 205.5 117.5t224.5 283.5q112 186 116 307q-2 91 -66 94q-79 0 -206 -117.5t-227 -283.5 q-110 -186 -113 -307zM748 1886q-83 58 108 108q86 22 182 34l381 -400q-2 -3 -5.5 -7t-14.5 -17t-21.5 -22.5t-27 -22.5t-30.5 -17.5t-32.5 -7.5t-32.5 8q-99 55 -507 344z" />
<glyph unicode="&#xe1;" d="M1 307.5q4 92.5 50 213t131 249.5t170.5 231t161 168t149 110t135 62.5t117.5 18.5q84 0 146 -67t82 -163l121 228l325 2q-293 -545 -381 -711q-30 -53 -55 -113t-14 -71q16 -16 99 56q13 11 19 16q58 48 386.5 360t388.5 375q22 22 31 -31q10 -59 -2 -111q-3 -13 -7 -18 q-66 -68 -428 -430.5t-469 -464.5q-227 -217 -375 -217q-91 0 -124 53.5t4 167.5q-221 -221 -408 -221q-83 0 -142.5 37t-87 107.5t-23.5 163zM415 418q2 -91 66 -94q79 0 205.5 117.5t224.5 283.5q112 186 116 307q-2 91 -66 94q-79 0 -206 -117.5t-227 -283.5 q-110 -186 -113 -307zM1083 1628l381 400l117 -19q206 -42 198 -93q-2 -15 -24 -30q-405 -287 -508 -344q-23 -11 -45.5 -6.5t-44 19.5t-38 31t-26.5 29z" />
<glyph unicode="&#xe2;" d="M1 307.5q4 92.5 50 213t131 249.5t170.5 231t161 168t149 110t135 62.5t117.5 18.5q84 0 146 -67t82 -163l121 228l325 2q-293 -545 -381 -711q-30 -53 -55 -113t-14 -71q16 -16 99 56q13 11 19 16q58 48 386.5 360t388.5 375q22 22 31 -31q10 -59 -2 -111q-3 -13 -7 -18 q-66 -68 -428 -430.5t-469 -464.5q-227 -217 -375 -217q-91 0 -124 53.5t4 167.5q-221 -221 -408 -221q-83 0 -142.5 37t-87 107.5t-23.5 163zM415 418q2 -91 66 -94q79 0 205.5 117.5t224.5 283.5q112 186 116 307q-2 91 -66 94q-79 0 -206 -117.5t-227 -283.5 q-110 -186 -113 -307zM930 1628l553 389q4 3 61 -94.5t112 -196.5l54 -98q-2 -2 -5 -4.5t-13.5 -11t-21.5 -16t-26 -17.5t-29 -18t-29.5 -15t-29 -10t-26 -2t-21.5 8q-13 10 -26.5 21.5t-31.5 29.5l-29.5 29.5t-37 37.5t-36.5 38q-199 -112 -291 -156q-28 -11 -49 -6.5 t-35.5 19.5t-24 31t-14.5 29z" />
<glyph unicode="&#xe3;" d="M1 307.5q4 92.5 50 213t131 249.5t170.5 231t161 168t149 110t135 62.5t117.5 18.5q84 0 146 -67t82 -163l121 228l325 2q-293 -545 -381 -711q-30 -53 -55 -113t-14 -71q16 -16 99 56q13 11 19 16q58 48 386.5 360t388.5 375q22 22 31 -31q10 -59 -2 -111q-3 -13 -7 -18 q-66 -68 -428 -430.5t-469 -464.5q-227 -217 -375 -217q-91 0 -124 53.5t4 167.5q-221 -221 -408 -221q-83 0 -142.5 37t-87 107.5t-23.5 163zM415 418q2 -91 66 -94q79 0 205.5 117.5t224.5 283.5q112 186 116 307q-2 91 -66 94q-79 0 -206 -117.5t-227 -283.5 q-110 -186 -113 -307zM877 1787q3 35 46 98q30 42 60 65q61 45 140 63.5t154.5 12.5t159.5 -18t154 -27.5t137.5 -16.5t110.5 16q17 6 17 -14q1 -39 -49 -90q-65 -66 -177 -102q-51 -17 -96.5 -12.5t-98 16.5t-100.5 30.5t-104 30t-108 15t-113 -14.5t-119 -59 q-15 -11 -14 7z" />
<glyph unicode="&#xe4;" d="M1 307.5q4 92.5 50 213t131 249.5t170.5 231t161 168t149 110t135 62.5t117.5 18.5q84 0 146 -67t82 -163l121 228l325 2q-293 -545 -381 -711q-30 -53 -55 -113t-14 -71q16 -16 99 56q13 11 19 16q58 48 386.5 360t388.5 375q22 22 31 -31q10 -59 -2 -111q-3 -13 -7 -18 q-66 -68 -428 -430.5t-469 -464.5q-227 -217 -375 -217q-91 0 -124 53.5t4 167.5q-221 -221 -408 -221q-83 0 -142.5 37t-87 107.5t-23.5 163zM415 418q2 -91 66 -94q79 0 205.5 117.5t224.5 283.5q112 186 116 307q-2 91 -66 94q-79 0 -206 -117.5t-227 -283.5 q-110 -186 -113 -307zM780 1597q-38 75 0 179q37 106 126.5 180t180.5 74t130 -74.5t2 -179.5q-37 -104 -128 -179t-182 -75t-129 75zM1411 1597q-38 75 0 179q37 106 126.5 180t180.5 74t129.5 -74t1.5 -180q-37 -104 -127.5 -179t-181.5 -75t-129 75z" />
<glyph unicode="&#xe6;" horiz-adv-x="2488" d="M1 307.5q4 92.5 50 213t131 249.5t170.5 231t161 168t149 110t135 62.5t117.5 18.5q84 0 146 -67t82 -163l121 228l325 2q-293 -545 -381 -711q-30 -53 -55 -113t-14 -71q16 -16 99 56q13 11 19 16q58 48 386.5 360t388.5 375q22 22 31 -31q10 -59 -2 -111q-3 -13 -7 -18 q-66 -68 -428 -430.5t-469 -464.5q-227 -217 -375 -217q-91 0 -124 53.5t4 167.5q-221 -221 -408 -221q-83 0 -142.5 37t-87 107.5t-23.5 163zM415 418q2 -91 66 -94q79 0 205.5 117.5t224.5 283.5q112 186 116 307q-2 91 -66 94q-79 0 -206 -117.5t-227 -283.5 q-110 -186 -113 -307zM1418 516.5q33 152.5 138 319.5q109 174 240 296t243.5 175t207.5 53q89 0 162 -31.5t116.5 -91.5t55.5 -138t-24.5 -180t-121.5 -208q-132 -165 -278 -233t-279 -27q-61 16 -109 61q-27 -125 28 -196.5t185 -71.5q453 0 1186 1028q19 26 32 -31 q15 -63 7 -109l-4 -12q-97 -158 -204.5 -305t-245.5 -299t-275.5 -263.5t-294.5 -182t-303 -70.5q-184 0 -301 67.5t-155.5 182t-5.5 267zM1843 696q36 -28 76 -32.5t82.5 14t76.5 41t76 57.5q85 72 143 186q55 109 28 149q-10 15 -33 15q-80 0 -206.5 -117t-225.5 -284 q-1 -2 -17 -29z" />
<glyph unicode="&#xe8;" horiz-adv-x="1132" d="M63 516.5q33 152.5 138 319.5q83 132 178.5 235t186 164.5t173 93t152.5 31.5q89 0 162 -31.5t116.5 -91.5t55.5 -138t-24.5 -180t-121.5 -208q-132 -165 -278 -233t-279 -27q-60 16 -108 61q-27 -125 28 -196.5t185 -71.5q452 0 1185 1028q19 26 32 -31q15 -63 7 -109 l-4 -12q-97 -158 -204.5 -305t-245.5 -299t-275.5 -263.5t-294.5 -182t-303 -70.5q-184 0 -301 67.5t-155 182t-5 267zM487 696q36 -28 76.5 -32.5t82.5 13.5t76.5 41t76.5 58q85 72 142 186q55 108 29 148q-11 16 -34 16q-80 0 -206.5 -117t-225.5 -284q-1 -2 -17 -29z M705 1886q-83 58 108 108q86 22 182 34l381 -400q-2 -3 -5.5 -7t-14.5 -17t-21.5 -22.5t-27 -22.5t-30.5 -17.5t-32.5 -7.5t-32.5 8q-99 55 -507 344z" />
<glyph unicode="&#xe9;" horiz-adv-x="1132" d="M63 516.5q33 152.5 138 319.5q83 132 178.5 235t186 164.5t173 93t152.5 31.5q89 0 162 -31.5t116.5 -91.5t55.5 -138t-24.5 -180t-121.5 -208q-132 -165 -278 -233t-279 -27q-60 16 -108 61q-27 -125 28 -196.5t185 -71.5q452 0 1185 1028q19 26 32 -31q15 -63 7 -109 l-4 -12q-97 -158 -204.5 -305t-245.5 -299t-275.5 -263.5t-294.5 -182t-303 -70.5q-184 0 -301 67.5t-155 182t-5 267zM487 696q36 -28 76.5 -32.5t82.5 13.5t76.5 41t76.5 58q85 72 142 186q55 108 29 148q-11 16 -34 16q-80 0 -206.5 -117t-225.5 -284q-1 -2 -17 -29z M838 1628l381 400l115 -19q208 -42 199 -93q-2 -15 -24 -30q-405 -287 -508 -344q-33 -18 -73.5 3.5t-65.5 52.5z" />
<glyph unicode="&#xea;" horiz-adv-x="1132" d="M63 516.5q33 152.5 138 319.5q83 132 178.5 235t186 164.5t173 93t152.5 31.5q89 0 162 -31.5t116.5 -91.5t55.5 -138t-24.5 -180t-121.5 -208q-132 -165 -278 -233t-279 -27q-60 16 -108 61q-27 -125 28 -196.5t185 -71.5q452 0 1185 1028q19 26 32 -31q15 -63 7 -109 l-4 -12q-97 -158 -204.5 -305t-245.5 -299t-275.5 -263.5t-294.5 -182t-303 -70.5q-184 0 -301 67.5t-155 182t-5 267zM487 696q36 -28 76.5 -32.5t82.5 13.5t76.5 41t76.5 58q85 72 142 186q55 108 29 148q-11 16 -34 16q-80 0 -206.5 -117t-225.5 -284q-1 -2 -17 -29z M639 1628l553 389q4 3 61 -94.5t111 -196.5l55 -98q-2 -2 -5 -4.5t-13.5 -11t-21 -16t-25.5 -17.5t-29 -18t-29.5 -15t-29 -10t-26 -2t-21.5 8q-37 27 -162 156q-199 -112 -291 -156q-28 -11 -49 -6.5t-35.5 19.5t-24 31t-13.5 29z" />
<glyph unicode="&#xeb;" horiz-adv-x="1132" d="M63 516.5q33 152.5 138 319.5q83 132 178.5 235t186 164.5t173 93t152.5 31.5q89 0 162 -31.5t116.5 -91.5t55.5 -138t-24.5 -180t-121.5 -208q-132 -165 -278 -233t-279 -27q-60 16 -108 61q-27 -125 28 -196.5t185 -71.5q452 0 1185 1028q19 26 32 -31q15 -63 7 -109 l-4 -12q-97 -158 -204.5 -305t-245.5 -299t-275.5 -263.5t-294.5 -182t-303 -70.5q-184 0 -301 67.5t-155 182t-5 267zM487 696q36 -28 76.5 -32.5t82.5 13.5t76.5 41t76.5 58q85 72 142 186q55 108 29 148q-11 16 -34 16q-80 0 -206.5 -117t-225.5 -284q-1 -2 -17 -29z M537 1597q-38 75 0 179q37 106 126.5 180t180.5 74t129.5 -74t1.5 -180q-37 -104 -127.5 -179t-181.5 -75t-129 75zM1167 1597q-38 75 0 179q37 106 127 180t181 74t129.5 -74t1.5 -180q-37 -104 -128 -179t-182 -75t-129 75z" />
<glyph unicode="&#xec;" horiz-adv-x="714" d="M7 173q13 61 56 138l562 1047l325 2q-293 -545 -381 -711q-30 -53 -55 -113t-14 -71q10 -11 34 5t70 55l4.5 4.5t4.5 3.5t5 4q58 49 388 362t387 373q21 22 30 -29q11 -61 -1 -113q-3 -13 -7 -18q-66 -68 -428 -430.5t-469 -464.5q-230 -217 -375 -217q-52 0 -86 19 t-48.5 56t-1.5 98zM481 1886q-83 58 107 107q87 23 184 35l381 -400q-2 -3 -5.5 -7t-14.5 -17t-21.5 -22.5t-27 -22.5t-30.5 -17.5t-32.5 -7.5t-32.5 8q-103 57 -508 344z" />
<glyph unicode="&#xed;" horiz-adv-x="714" d="M7 173q13 61 56 138l562 1047l325 2q-293 -545 -381 -711q-30 -53 -55 -113t-14 -71q10 -11 34 5t70 55l4.5 4.5t4.5 3.5t5 4q58 49 388 362t387 373q21 22 30 -29q11 -61 -1 -113q-3 -13 -7 -18q-66 -68 -428 -430.5t-469 -464.5q-230 -217 -375 -217q-52 0 -86 19 t-48.5 56t-1.5 98zM729 1628l381 400l117 -19q206 -42 198 -93q-2 -15 -24 -30q-405 -287 -508 -344q-23 -11 -45.5 -6.5t-44 19.5t-38 31t-26.5 29z" />
<glyph unicode="&#xee;" horiz-adv-x="714" d="M7 173q13 61 56 138l562 1047l325 2q-293 -545 -381 -711q-30 -53 -55 -113t-14 -71q10 -11 34 5t70 55l4.5 4.5t4.5 3.5t5 4q58 49 388 362t387 373q21 22 30 -29q11 -61 -1 -113q-3 -13 -7 -18q-66 -68 -428 -430.5t-469 -464.5q-230 -217 -375 -217q-52 0 -86 19 t-48.5 56t-1.5 98zM475 1628l553 389q4 3 61 -94.5t111 -196.5l55 -98q-2 -2 -5 -4.5t-13.5 -11t-21 -16t-25.5 -17.5t-29 -18t-29.5 -15t-29 -10t-26 -2t-21.5 8q-37 27 -162 156q-199 -112 -291 -156q-28 -11 -49 -6.5t-35.5 19.5t-24 31t-13.5 29z" />
<glyph unicode="&#xef;" horiz-adv-x="714" d="M7 173q13 61 56 138l562 1047l325 2q-293 -545 -381 -711q-30 -53 -55 -113t-14 -71q10 -11 34 5t70 55l4.5 4.5t4.5 3.5t5 4q58 49 388 362t387 373q21 22 30 -29q11 -61 -1 -113q-3 -13 -7 -18q-66 -68 -428 -430.5t-469 -464.5q-230 -217 -375 -217q-52 0 -86 19 t-48.5 56t-1.5 98zM393 1597q-38 75 0 179q37 106 126.5 180t180.5 74t129.5 -74t1.5 -180q-37 -104 -127.5 -179t-181.5 -75t-129 75zM1024 1597q-38 75 0 179q37 106 126.5 180t180.5 74t129.5 -74t1.5 -180q-37 -104 -127.5 -179t-181.5 -75t-129 75z" />
<glyph unicode="&#xf1;" horiz-adv-x="1466" d="M-162 0l729 1358h324l-334 -623q117 153 232.5 270.5t201.5 182.5t164.5 106t125.5 53.5t81 12.5q51 0 90.5 -11.5t68.5 -39.5t38.5 -71t-7 -111t-61.5 -154q-59 -115 -172 -324q-87 -165 -68 -184q10 -12 38 7.5t75 60.5l4 4q58 48 387.5 360.5t388.5 374.5 q21 22 31 -31q10 -60 -2 -110q-4 -14 -8 -19q-70 -73 -429 -433t-466 -462q-230 -217 -375 -217q-52 0 -86 19t-48.5 56t-1.5 98t56 138q40 73 114.5 214.5t123.5 230.5q106 199 72 237q-10 11 -31 11q-45 0 -159.5 -89.5t-250.5 -226.5t-282 -325.5t-240 -362.5l4 6l-4 -6 h-324zM717 1787q3 35 46 98q30 42 60 65q61 45 140 63.5t154.5 12.5t159.5 -18t154 -27.5t137.5 -16.5t110.5 16q17 6 17 -14q1 -39 -49 -90q-65 -66 -177 -102q-51 -17 -96.5 -12.5t-98 16.5t-100.5 30.5t-104 30t-108 15t-113 -14.5t-119 -59q-15 -11 -14 7z" />
<glyph unicode="&#xf2;" horiz-adv-x="1202" d="M50 302q-7 92 29 214t114 254t162.5 236t160.5 169t152.5 108t139 60t120.5 17q45 0 53 -92q76 82 156 82q41 0 69.5 -29t39.5 -75t14 -101.5t-7 -108.5q-16 -117 -49 -207q66 -12 161.5 35t182 120t147.5 133t85 91q29 28 53.5 10t39.5 -56t5 -50q-1 -1 -6 -7 q-23 -27 -44.5 -51.5t-78 -83t-108.5 -105t-125 -102.5t-138 -91.5t-138.5 -55.5t-135.5 -10q-20 -38 -68 -112q-164 -246 -341 -370t-349 -124q-84 0 -149.5 36t-102.5 105t-44 161zM427 416q-1 -91 67 -92q50 0 107 38t111.5 102t102.5 136t90 152q-48 76 -53 171t27 173 q-81 -47 -174 -148t-164 -223q-112 -188 -114 -309zM815 1886q-83 58 107 107q87 23 184 35l381 -400q-2 -3 -5.5 -7t-14.5 -17t-21.5 -22.5t-27 -22.5t-30.5 -17.5t-32.5 -7.5t-32.5 8q-103 57 -508 344z" />
<glyph unicode="&#xf3;" horiz-adv-x="1202" d="M50 302q-7 92 29 214t114 254t162.5 236t160.5 169t152.5 108t139 60t120.5 17q45 0 53 -92q76 82 156 82q41 0 69.5 -29t39.5 -75t14 -101.5t-7 -108.5q-16 -117 -49 -207q66 -12 161.5 35t182 120t147.5 133t85 91q29 28 53.5 10t39.5 -56t5 -50q-1 -1 -6 -7 q-23 -27 -44.5 -51.5t-78 -83t-108.5 -105t-125 -102.5t-138 -91.5t-138.5 -55.5t-135.5 -10q-20 -38 -68 -112q-164 -246 -341 -370t-349 -124q-84 0 -149.5 36t-102.5 105t-44 161zM427 416q-1 -91 67 -92q50 0 107 38t111.5 102t102.5 136t90 152q-48 76 -53 171t27 173 q-81 -47 -174 -148t-164 -223q-112 -188 -114 -309zM895 1628l381 400l117 -19q206 -42 198 -93q-2 -15 -24 -30q-405 -287 -508 -344q-23 -11 -45.5 -6.5t-44 19.5t-38 31t-26.5 29z" />
<glyph unicode="&#xf4;" horiz-adv-x="1202" d="M50 302q-7 92 29 214t114 254t162.5 236t160.5 169t152.5 108t139 60t120.5 17q45 0 53 -92q76 82 156 82q41 0 69.5 -29t39.5 -75t14 -101.5t-7 -108.5q-16 -117 -49 -207q66 -12 161.5 35t182 120t147.5 133t85 91q29 28 53.5 10t39.5 -56t5 -50q-1 -1 -6 -7 q-23 -27 -44.5 -51.5t-78 -83t-108.5 -105t-125 -102.5t-138 -91.5t-138.5 -55.5t-135.5 -10q-20 -38 -68 -112q-164 -246 -341 -370t-349 -124q-84 0 -149.5 36t-102.5 105t-44 161zM427 416q-1 -91 67 -92q50 0 107 38t111.5 102t102.5 136t90 152q-48 76 -53 171t27 173 q-81 -47 -174 -148t-164 -223q-112 -188 -114 -309zM758 1628l553 389q4 3 61 -94.5t112 -196.5l54 -98q-2 -2 -5 -4.5t-13.5 -11t-21.5 -16t-26 -17.5t-29 -18t-29.5 -15t-29 -10t-26 -2t-21.5 8q-13 10 -26.5 21.5t-31.5 29.5l-29.5 29.5t-37 37.5t-36.5 38 q-199 -112 -291 -156q-28 -11 -49 -6.5t-35.5 19.5t-24 31t-14.5 29z" />
<glyph unicode="&#xf5;" horiz-adv-x="1202" d="M50 302q-7 92 29 214t114 254t162.5 236t160.5 169t152.5 108t139 60t120.5 17q45 0 53 -92q76 82 156 82q41 0 69.5 -29t39.5 -75t14 -101.5t-7 -108.5q-16 -117 -49 -207q66 -12 161.5 35t182 120t147.5 133t85 91q29 28 53.5 10t39.5 -56t5 -50q-1 -1 -6 -7 q-23 -27 -44.5 -51.5t-78 -83t-108.5 -105t-125 -102.5t-138 -91.5t-138.5 -55.5t-135.5 -10q-20 -38 -68 -112q-164 -246 -341 -370t-349 -124q-84 0 -149.5 36t-102.5 105t-44 161zM427 416q-1 -91 67 -92q50 0 107 38t111.5 102t102.5 136t90 152q-48 76 -53 171t27 173 q-81 -47 -174 -148t-164 -223q-112 -188 -114 -309zM805 1787q3 35 46 98q30 42 60 65q61 45 140 63.5t154.5 12.5t159.5 -18t154 -27.5t137.5 -16.5t110.5 16q17 6 17 -15q1 -38 -48 -89q-65 -66 -177 -102q-51 -17 -96.5 -12.5t-98 16.5t-100.5 30.5t-104 30t-108.5 15 t-113.5 -14.5t-119 -59q-15 -11 -14 7z" />
<glyph unicode="&#xf6;" horiz-adv-x="1202" d="M50 302q-7 92 29 214t114 254t162.5 236t160.5 169t152.5 108t139 60t120.5 17q45 0 53 -92q76 82 156 82q41 0 69.5 -29t39.5 -75t14 -101.5t-7 -108.5q-16 -117 -49 -207q66 -12 161.5 35t182 120t147.5 133t85 91q29 28 53.5 10t39.5 -56t5 -50q-1 -1 -6 -7 q-23 -27 -44.5 -51.5t-78 -83t-108.5 -105t-125 -102.5t-138 -91.5t-138.5 -55.5t-135.5 -10q-20 -38 -68 -112q-164 -246 -341 -370t-349 -124q-84 0 -149.5 36t-102.5 105t-44 161zM427 416q-1 -91 67 -92q50 0 107 38t111.5 102t102.5 136t90 152q-48 76 -53 171t27 173 q-81 -47 -174 -148t-164 -223q-112 -188 -114 -309zM631 1597q-38 75 0 179q37 106 126.5 180t180.5 74t129.5 -74t1.5 -180q-37 -104 -127.5 -179t-181.5 -75t-129 75zM1262 1597q-38 75 0 179q37 106 126.5 180t180.5 74t129.5 -74t1.5 -180q-37 -104 -127.5 -179 t-181.5 -75t-129 75z" />
<glyph unicode="&#xf9;" horiz-adv-x="1372" d="M-1 227q6 100 64 207l496 924l326 2q-293 -545 -381 -711q-15 -27 -25.5 -53t-17.5 -58.5t10 -52.5t59 -20q55 0 172.5 99.5t234 235.5t177.5 242l168 316l326 2q-293 -545 -381 -711q-31 -54 -56 -113.5t-14 -70.5q15 -17 108 63q2 2 3.5 3t3.5 3t4 3q58 49 387.5 362 t386.5 373q21 22 30 -29q11 -60 0 -112q-3 -14 -7 -19q-66 -68 -428 -430.5t-469 -464.5q-230 -217 -375 -217q-52 0 -86 19t-48.5 56t-1.5 98t56 138q4 9 80 148q-178 -197 -345 -328t-261 -131q-99 0 -150.5 63.5t-45.5 163.5zM782 1886q-83 58 107 107q87 23 184 35 l381 -400q-2 -3 -5.5 -7t-14.5 -17t-21.5 -22.5t-27 -22.5t-30.5 -17.5t-32.5 -7.5t-32.5 8q-103 57 -508 344z" />
<glyph unicode="&#xfa;" horiz-adv-x="1372" d="M-1 227q6 100 64 207l496 924l326 2q-293 -545 -381 -711q-15 -27 -25.5 -53t-17.5 -58.5t10 -52.5t59 -20q55 0 172.5 99.5t234 235.5t177.5 242l168 316l326 2q-293 -545 -381 -711q-31 -54 -56 -113.5t-14 -70.5q15 -17 108 63q2 2 3.5 3t3.5 3t4 3q58 49 387.5 362 t386.5 373q21 22 30 -29q11 -60 0 -112q-3 -14 -7 -19q-66 -68 -428 -430.5t-469 -464.5q-230 -217 -375 -217q-52 0 -86 19t-48.5 56t-1.5 98t56 138q4 9 80 148q-178 -197 -345 -328t-261 -131q-99 0 -150.5 63.5t-45.5 163.5zM918 1628l380 400l117 -19q206 -42 198 -93 q-2 -15 -24 -30q-405 -287 -508 -344q-33 -18 -73.5 3.5t-65.5 52.5z" />
<glyph unicode="&#xfb;" horiz-adv-x="1372" d="M-1 227q6 100 64 207l496 924l326 2q-293 -545 -381 -711q-15 -27 -25.5 -53t-17.5 -58.5t10 -52.5t59 -20q55 0 172.5 99.5t234 235.5t177.5 242l168 316l326 2q-293 -545 -381 -711q-31 -54 -56 -113.5t-14 -70.5q15 -17 108 63q2 2 3.5 3t3.5 3t4 3q58 49 387.5 362 t386.5 373q21 22 30 -29q11 -60 0 -112q-3 -14 -7 -19q-66 -68 -428 -430.5t-469 -464.5q-230 -217 -375 -217q-52 0 -86 19t-48.5 56t-1.5 98t56 138q4 9 80 148q-178 -197 -345 -328t-261 -131q-99 0 -150.5 63.5t-45.5 163.5zM756 1628l553 389q4 3 61 -94.5t112 -196.5 l54 -98q-2 -2 -5 -4.5t-13.5 -11t-21.5 -16t-26 -17.5t-29 -18t-29.5 -15t-29 -10t-26 -2t-21.5 8q-13 10 -26.5 21.5t-31.5 29.5l-29.5 29.5t-37 37.5t-36.5 38q-199 -112 -291 -156q-28 -11 -49 -6.5t-35.5 19.5t-24 31t-14.5 29z" />
<glyph unicode="&#xfc;" horiz-adv-x="1372" d="M-1 227q6 100 64 207l496 924l326 2q-293 -545 -381 -711q-15 -27 -25.5 -53t-17.5 -58.5t10 -52.5t59 -20q55 0 172.5 99.5t234 235.5t177.5 242l168 316l326 2q-293 -545 -381 -711q-31 -54 -56 -113.5t-14 -70.5q15 -17 108 63q2 2 3.5 3t3.5 3t4 3q58 49 387.5 362 t386.5 373q21 22 30 -29q11 -60 0 -112q-3 -14 -7 -19q-66 -68 -428 -430.5t-469 -464.5q-230 -217 -375 -217q-52 0 -86 19t-48.5 56t-1.5 98t56 138q4 9 80 148q-178 -197 -345 -328t-261 -131q-99 0 -150.5 63.5t-45.5 163.5zM768 1597q-38 75 0 179q37 106 126.5 180 t180.5 74t129.5 -74t1.5 -180q-37 -104 -127.5 -179t-181.5 -75t-129 75zM1399 1597q-38 75 0 179q37 106 126.5 180t180.5 74t129.5 -74t1.5 -180q-37 -104 -127.5 -179t-181.5 -75t-129 75z" />
<glyph unicode="&#xfd;" horiz-adv-x="1382" d="M-158 -545q0 56 28.5 107t73 89.5t121 85.5t149 83.5t183 95.5t197.5 111l240 458q-185 -206 -359 -345.5t-270 -139.5q-99 0 -150.5 63.5t-46 163.5t63.5 207l495 924l326 2q-293 -545 -381 -711q-11 -20 -20.5 -40.5t-16.5 -47.5t-5 -47.5t19.5 -34.5t51.5 -14 q56 0 179 106.5t242 248.5t173 245q4 8 6 8l149 287h324q-262 -501 -510 -963q375 315 954 875q22 21 31 -30q11 -60 -1 -112q-3 -13 -7 -18q-447 -473 -1104 -950q-240 -451 -283 -524q-38 -64 -62 -103t-56.5 -89t-57.5 -79t-58 -63t-63.5 -52.5t-68.5 -35.5t-80 -24 t-90 -7q-50 0 -103.5 17.5t-102 49.5t-79.5 85.5t-31 117.5zM80 -590q0 -88 80 -88q18 0 34.5 8t33.5 27t31 38.5t33.5 54.5t34 63t39 76t42.5 81l69 135q-202 -144 -299.5 -236.5t-97.5 -158.5zM901 1628l381 400l117 -19q206 -42 198 -93q-2 -15 -24 -30 q-405 -287 -508 -344q-23 -11 -45.5 -6.5t-44 19.5t-38 31t-26.5 29z" />
<glyph unicode="&#xff;" horiz-adv-x="1382" d="M-158 -545q0 56 28.5 107t73 89.5t121 85.5t149 83.5t183 95.5t197.5 111l240 458q-185 -206 -359 -345.5t-270 -139.5q-99 0 -150.5 63.5t-46 163.5t63.5 207l495 924l326 2q-293 -545 -381 -711q-11 -20 -20.5 -40.5t-16.5 -47.5t-5 -47.5t19.5 -34.5t51.5 -14 q56 0 179 106.5t242 248.5t173 245q4 8 6 8l149 287h324q-262 -501 -510 -963q375 315 954 875q22 21 31 -30q11 -60 -1 -112q-3 -13 -7 -18q-447 -473 -1104 -950q-240 -451 -283 -524q-38 -64 -62 -103t-56.5 -89t-57.5 -79t-58 -63t-63.5 -52.5t-68.5 -35.5t-80 -24 t-90 -7q-50 0 -103.5 17.5t-102 49.5t-79.5 85.5t-31 117.5zM80 -590q0 -88 80 -88q18 0 34.5 8t33.5 27t31 38.5t33.5 54.5t34 63t39 76t42.5 81l69 135q-202 -144 -299.5 -236.5t-97.5 -158.5zM735 1597q-38 75 0 179q37 106 126.5 180t180.5 74t130 -74.5t2 -179.5 q-37 -104 -128 -179t-182 -75t-129 75zM1366 1597q-38 75 0 179q37 106 126.5 180t180.5 74t129.5 -74t1.5 -180q-37 -104 -127.5 -179t-181.5 -75t-129 75z" />
<glyph unicode="&#x2c6;" horiz-adv-x="1165" d="M590 1628l553 389q4 3 61 -94.5t112 -196.5l54 -98q-2 -2 -5 -4.5t-13.5 -11t-21.5 -16t-26 -17.5t-29 -18t-29.5 -15t-29 -10t-26 -2t-21.5 8q-13 10 -26.5 21.5t-31.5 29.5l-29.5 29.5t-37 37.5t-36.5 38q-199 -112 -291 -156q-28 -11 -49 -6.5t-35.5 19.5t-24 31 t-14.5 29z" />
<glyph unicode="&#x2dc;" horiz-adv-x="1366" d="M590 1787q3 35 46 98q30 42 60 65q61 45 140 63.5t154.5 12.5t159.5 -18t154 -27.5t137.5 -16.5t110.5 16q17 6 17 -14q1 -39 -49 -90q-65 -66 -177 -102q-51 -17 -96.5 -12.5t-98 16.5t-100.5 30.5t-104 30t-108 15t-113 -14.5t-119 -59q-15 -11 -14 7z" />
<glyph unicode="&#x2000;" horiz-adv-x="1445" />
<glyph unicode="&#x2001;" horiz-adv-x="2890" />
<glyph unicode="&#x2002;" horiz-adv-x="1445" />
<glyph unicode="&#x2003;" horiz-adv-x="2890" />
<glyph unicode="&#x2004;" horiz-adv-x="963" />
<glyph unicode="&#x2005;" horiz-adv-x="722" />
<glyph unicode="&#x2006;" horiz-adv-x="481" />
<glyph unicode="&#x2007;" horiz-adv-x="481" />
<glyph unicode="&#x2008;" horiz-adv-x="361" />
<glyph unicode="&#x2009;" horiz-adv-x="578" />
<glyph unicode="&#x200a;" horiz-adv-x="160" />
<glyph unicode="&#x2010;" horiz-adv-x="1695" d="M201 659l131 244h1274l-129 -244h-1276z" />
<glyph unicode="&#x2011;" horiz-adv-x="1695" d="M201 659l131 244h1274l-129 -244h-1276z" />
<glyph unicode="&#x2012;" horiz-adv-x="1695" d="M201 659l131 244h1274l-129 -244h-1276z" />
<glyph unicode="&#x2013;" horiz-adv-x="1314" d="M201 659l95 244h929l-94 -244h-930z" />
<glyph unicode="&#x2014;" horiz-adv-x="2338" d="M201 659l191 244h1857l-188 -244h-1860z" />
<glyph unicode="&#x202f;" horiz-adv-x="578" />
<glyph unicode="&#x205f;" horiz-adv-x="722" />
<glyph unicode="&#x20ac;" horiz-adv-x="1277" d="M0 496l84 157h147q10 34 41 101h-151l84 157h157q72 110 156 197t161 139.5t155.5 87t138.5 47.5t112 13q99 0 160.5 -54.5t72 -129.5t-27.5 -157t-121 -132q-31 -18 -59 -20t-46.5 8t-32.5 23.5t-21 24.5l-6 11q110 80 139 176q22 74 -18 107q-18 16 -48 16 q-78 0 -190.5 -92.5t-220.5 -264.5l297 2l-84 -157h-301q-22 -52 -41 -103h305l-84 -157h-258q-12 -124 34 -197.5t144 -73.5q75 0 155.5 31t147 78t129.5 107.5t106 114t74 101.5q19 31 48 -5t30 -80q0 -16 -6 -27q-47 -87 -124 -178t-175 -175t-219 -138t-236 -54 q-90 0 -169.5 34.5t-138 97t-87.5 157.5t-16 207h-197z" />
<glyph unicode="&#x25fc;" horiz-adv-x="1361" d="M0 0v1362h1362v-1362h-1362z" />
</font>
</defs>
</svg>
